0
SECTION
2
HEADER
9
$INSUNITS
70
4
9
$ACADVER
1
AC1014
9
$HANDSEED
5
FFFF
0
ENDSEC
0
SECTION
2
TABLES
0
TABLE
2
VPORT
5
8
100
AcDbSymbolTable
0
ENDTAB
0
TABLE
2
LTYPE
5
5
100
AcDbSymbolTable
0
LTYPE
5
14
100
AcDbSymbolTableRecord
100
AcDbLinetypeTableRecord
2
BYBLOCK
70
0
0
LTYPE
5
15
100
AcDbSymbolTableRecord
100
AcDbLinetypeTableRecord
2
BYLAYER
70
0
0
LTYPE
5
16
100
AcDbSymbolTableRecord
100
AcDbLinetypeTableRecord
2
DASHED
70
0
3
Dashed __ __ __ __ __ __ __ __ __ __ __ __ __ _
72
65
73
2
40
0.75
49
0.5
74
0
49
-0.25
74
0
0
ENDTAB
0
TABLE
2
LAYER
5
2
100
AcDbSymbolTable
70
2
0
LAYER
5
50
100
AcDbSymbolTableRecord
100
AcDbLayerTableRecord
2
0
70
0
62
7
6
CONTINUOUS
0
ENDTAB
0
TABLE
2
STYLE
5
3
100
AcDbSymbolTable
70
1
0
STYLE
5
11
100
AcDbSymbolTableRecord
100
AcDbTextStyleTableRecord
2
STANDARD
70
0
0
ENDTAB
0
TABLE
2
VIEW
5
6
100
AcDbSymbolTable
70
0
0
ENDTAB
0
TABLE
2
UCS
5
7
100
AcDbSymbolTable
70
0
0
ENDTAB
0
TABLE
2
APPID
5
9
100
AcDbSymbolTable
70
2
0
APPID
5
12
100
AcDbSymbolTableRecord
100
AcDbRegAppTableRecord
2
ACAD
70
0
0
ENDTAB
0
TABLE
2
DIMSTYLE
5
A
100
AcDbSymbolTable
70
1
0
ENDTAB
0
TABLE
2
BLOCK_RECORD
5
1
100
AcDbSymbolTable
70
1
0
BLOCK_RECORD
5
1F
100
AcDbSymbolTableRecord
100
AcDbBlockTableRecord
2
*MODEL_SPACE
0
BLOCK_RECORD
5
1B
100
AcDbSymbolTableRecord
100
AcDbBlockTableRecord
2
*PAPER_SPACE
0
ENDTAB
0
ENDSEC
0
SECTION
2
BLOCKS
0
BLOCK
5
20
100
AcDbEntity
100
AcDbBlockBegin
2
*MODEL_SPACE
0
ENDBLK
5
21
100
AcDbEntity
100
AcDbBlockEnd
0
BLOCK
5
1C
100
AcDbEntity
100
AcDbBlockBegin
2
*PAPER_SPACE
0
ENDBLK
5
1D
100
AcDbEntity
100
AcDbBlockEnd
0
ENDSEC
0
SECTION
2
ENTITIES
0
CIRCLE
5
100
100
AcDbEntity
8
0
100
AcDbCircle
10
-42.06111092640711
20
-15.000000223517421
30
0
40
1.6000000000000003
210
0
220
0
230
1
0
LINE
5
101
100
AcDbEntity
8
0
100
AcDbLine
10
45.500000000000036
20
-12.500000000000339
30
0
11
40
21
-12.500000000000339
31
0
0
LINE
5
102
100
AcDbEntity
8
0
100
AcDbLine
10
40
20
-12.500000000000339
30
0
11
40
21
-19.935340033749526
31
0
0
LINE
5
103
100
AcDbEntity
8
0
100
AcDbLine
10
40
20
-19.935340033749526
30
0
11
48.00000000000005
21
-19.935340033749526
31
1.0798313472181342e-31
0
LINE
5
104
100
AcDbEntity
8
0
100
AcDbLine
10
48.00000000000005
20
-19.935340033749526
30
1.0798313472181342e-31
11
48.000000000000036
21
12.991350724091568
31
0
0
LINE
5
105
100
AcDbEntity
8
0
100
AcDbLine
10
48.000000000000036
20
12.991350724091568
30
0
11
-48.000000000000036
21
12.991350724091568
31
0
0
LINE
5
106
100
AcDbEntity
8
0
100
AcDbLine
10
-48.000000000000036
20
12.991350724091568
30
0
11
-48.00000000000005
21
-19.935340033749526
31
0
0
LINE
5
107
100
AcDbEntity
8
0
100
AcDbLine
10
-48.00000000000005
20
-19.935340033749526
30
0
11
-40
21
-19.935340033749526
31
1.0798313472181347e-31
0
LINE
5
108
100
AcDbEntity
8
0
100
AcDbLine
10
-40
20
-19.935340033749526
30
1.0798313472181347e-31
11
-40
21
-12.500000000000339
31
0
0
LINE
5
109
100
AcDbEntity
8
0
100
AcDbLine
10
-40
20
-12.500000000000339
30
0
11
-45.500000000000036
21
-12.500000000000339
31
0
0
SPLINE
5
110
100
AcDbEntity
8
0
100
AcDbSpline
70
0
71
3
72
10
73
6
74
0
42
0.000000001
43
0.0000000001
44
0.0000000001
40
0
40
0
40
0
40
0
40
0.11756281913290761
40
0.11756281913290761
40
0.19402604569557791
40
0.19402604569557791
40
0.19402604569557791
40
0.19402604569557791
10
-45.500000000000036
20
-12.500000000000339
30
0
10
-45.777098222080987
20
-12.222901777919384
30
0
10
-46.103912716188745
20
-11.884776727796334
30
0
10
-46.410428000102257
20
-11.315269526849466
30
0
10
-46.500000000000028
20
-11.02282661430703
30
0
10
-46.500000000000028
20
-10.767949192431463
30
0
0
LINE
5
111
100
AcDbEntity
8
0
100
AcDbLine
10
-46.500000000000028
20
-10.767949192431463
30
0
11
-46.500000000000028
21
10.106144280348122
31
0
0
SPLINE
5
112
100
AcDbEntity
8
0
100
AcDbSpline
70
0
71
3
72
10
73
6
74
0
42
0.000000001
43
0.0000000001
44
0.0000000001
40
0.50553224003850927
40
0.50553224003850927
40
0.50553224003850927
40
0.50553224003850927
40
0.58199546660117885
40
0.58199546660117885
40
0.6995582857340874
40
0.6995582857340874
40
0.6995582857340874
40
0.6995582857340874
10
-46.500000000000028
20
10.106144280348122
30
0
10
-46.500000000000028
20
10.361021702223688
30
0
10
-46.410428000102264
20
10.653464614766122
30
0
10
-46.103912716188759
20
11.22297181571299
30
0
10
-45.777098222080994
20
11.56109686583604
30
0
10
-45.500000000000036
20
11.838195087916999
30
0
0
LINE
5
113
100
AcDbEntity
8
0
100
AcDbLine
10
-45.500000000000036
20
11.838195087916999
30
0
11
45.500000000000036
21
11.838195087916999
31
0
0
SPLINE
5
114
100
AcDbEntity
8
0
100
AcDbSpline
70
0
71
3
72
10
73
6
74
0
42
0.000000001
43
0.0000000001
44
0.0000000001
40
0.50553224003850927
40
0.50553224003850927
40
0.50553224003850927
40
0.50553224003850927
40
0.58199546660117885
40
0.58199546660117885
40
0.6995582857340874
40
0.6995582857340874
40
0.6995582857340874
40
0.6995582857340874
10
46.500000000000028
20
10.106144280348122
30
0
10
46.500000000000028
20
10.361021702223688
30
0
10
46.410428000102264
20
10.653464614766122
30
0
10
46.103912716188759
20
11.22297181571299
30
0
10
45.777098222080994
20
11.56109686583604
30
0
10
45.500000000000036
20
11.838195087916999
30
0
0
LINE
5
115
100
AcDbEntity
8
0
100
AcDbLine
10
46.500000000000028
20
10.106144280348122
30
0
11
46.500000000000043
21
-10.767949192431463
31
0
0
SPLINE
5
116
100
AcDbEntity
8
0
100
AcDbSpline
70
0
71
3
72
10
73
6
74
0
42
0.000000001
43
0.0000000001
44
0.0000000001
40
0
40
0
40
0
40
0
40
0.11756281913290761
40
0.11756281913290761
40
0.19402604569557791
40
0.19402604569557791
40
0.19402604569557791
40
0.19402604569557791
10
45.500000000000036
20
-12.500000000000339
30
0
10
45.777098222080987
20
-12.222901777919384
30
0
10
46.103912716188745
20
-11.884776727796334
30
0
10
46.410428000102257
20
-11.315269526849466
30
0
10
46.500000000000028
20
-11.02282661430703
30
0
10
46.500000000000028
20
-10.767949192431463
30
0
0
CIRCLE
5
117
100
AcDbEntity
8
0
100
AcDbCircle
10
42.06111092640711
20
-15.000000223517421
30
0
40
1.6000000000000003
210
0
220
-0
230
1
0
ENDSEC
0
SECTION
2
OBJECTS
0
DICTIONARY
5
C
100
AcDbDictionary
3
ACAD_GROUP
350
D
3
ACAD_MLINESTYLE
350
17
0
DICTIONARY
5
D
100
AcDbDictionary
0
DICTIONARY
5
1A
330
C
100
AcDbDictionary
0
DICTIONARY
5
17
100
AcDbDictionary
0
ENDSEC
0
EOF
