0
SECTION
2
HEADER
9
$INSUNITS
70
4
9
$ACADVER
1
AC1014
9
$HANDSEED
5
FFFF
0
ENDSEC
0
SECTION
2
TABLES
0
TABLE
2
VPORT
5
8
100
AcDbSymbolTable
0
ENDTAB
0
TABLE
2
LTYPE
5
5
100
AcDbSymbolTable
0
LTYPE
5
14
100
AcDbSymbolTableRecord
100
AcDbLinetypeTableRecord
2
BYBLOCK
70
0
0
LTYPE
5
15
100
AcDbSymbolTableRecord
100
AcDbLinetypeTableRecord
2
BYLAYER
70
0
0
LTYPE
5
16
100
AcDbSymbolTableRecord
100
AcDbLinetypeTableRecord
2
DASHED
70
0
3
Dashed __ __ __ __ __ __ __ __ __ __ __ __ __ _
72
65
73
2
40
0.75
49
0.5
74
0
49
-0.25
74
0
0
ENDTAB
0
TABLE
2
LAYER
5
2
100
AcDbSymbolTable
70
2
0
LAYER
5
50
100
AcDbSymbolTableRecord
100
AcDbLayerTableRecord
2
0
70
0
62
7
6
CONTINUOUS
0
ENDTAB
0
TABLE
2
STYLE
5
3
100
AcDbSymbolTable
70
1
0
STYLE
5
11
100
AcDbSymbolTableRecord
100
AcDbTextStyleTableRecord
2
STANDARD
70
0
0
ENDTAB
0
TABLE
2
VIEW
5
6
100
AcDbSymbolTable
70
0
0
ENDTAB
0
TABLE
2
UCS
5
7
100
AcDbSymbolTable
70
0
0
ENDTAB
0
TABLE
2
APPID
5
9
100
AcDbSymbolTable
70
2
0
APPID
5
12
100
AcDbSymbolTableRecord
100
AcDbRegAppTableRecord
2
ACAD
70
0
0
ENDTAB
0
TABLE
2
DIMSTYLE
5
A
100
AcDbSymbolTable
70
1
0
ENDTAB
0
TABLE
2
BLOCK_RECORD
5
1
100
AcDbSymbolTable
70
1
0
BLOCK_RECORD
5
1F
100
AcDbSymbolTableRecord
100
AcDbBlockTableRecord
2
*MODEL_SPACE
0
BLOCK_RECORD
5
1B
100
AcDbSymbolTableRecord
100
AcDbBlockTableRecord
2
*PAPER_SPACE
0
ENDTAB
0
ENDSEC
0
SECTION
2
BLOCKS
0
BLOCK
5
20
100
AcDbEntity
100
AcDbBlockBegin
2
*MODEL_SPACE
0
ENDBLK
5
21
100
AcDbEntity
100
AcDbBlockEnd
0
BLOCK
5
1C
100
AcDbEntity
100
AcDbBlockBegin
2
*PAPER_SPACE
0
ENDBLK
5
1D
100
AcDbEntity
100
AcDbBlockEnd
0
ENDSEC
0
SECTION
2
ENTITIES
0
CIRCLE
5
100
100
AcDbEntity
8
0
100
AcDbCircle
10
-42.06111092640711
20
-15.000000223517421
30
0
40
1.6000000000000003
210
2.7369110631344083e-48
220
-4.0347799836298893e-96
230
1
0
LINE
5
101
100
AcDbEntity
8
0
100
AcDbLine
10
40
20
-18.971063356184729
30
0
11
48.000000000000036
21
-18.971063356184729
31
1.079831347218132e-31
0
LINE
5
102
100
AcDbEntity
8
0
100
AcDbLine
10
48.000000000000036
20
-18.971063356184729
30
1.079831347218132e-31
11
48.000000000000014
21
12.991350724091568
31
0
0
LINE
5
103
100
AcDbEntity
8
0
100
AcDbLine
10
48.000000000000014
20
12.991350724091568
30
0
11
-48.000000000000014
21
12.991350724091568
31
0
0
LINE
5
104
100
AcDbEntity
8
0
100
AcDbLine
10
-48.000000000000014
20
12.991350724091568
30
0
11
-48.000000000000036
21
-18.971063356184729
31
0
0
LINE
5
105
100
AcDbEntity
8
0
100
AcDbLine
10
-48.000000000000036
20
-18.971063356184729
30
0
11
-40
21
-18.971063356184729
31
1.0798313472181325e-31
0
CIRCLE
5
106
100
AcDbEntity
8
0
100
AcDbCircle
10
42.06111092640711
20
-15.000000223517421
30
0
40
1.6000000000000003
210
2.7369110631344083e-48
220
-4.0347799836298893e-96
230
1
0
LWPOLYLINE
5
107
100
AcDbEntity
8
0
100
AcDbPolyline
90
8
70
1
43
0.0
10
-48.000000000000014
20
-18.971063356184729
10
-48.000000000000014
20
12.991350724091568
10
48.000000000000036
20
12.991350724091568
10
48.000000000000036
20
-18.971063356184729
10
22.999469000907681
20
-18.971063356184725
10
22.999469000907673
20
-48
10
-23.000000000000014
20
-48
10
-23.000000000000014
20
-18.971063356184725
0
LINE
5
108
100
AcDbEntity
8
0
100
AcDbLine
10
-23.600000000000044
20
-19.649000000000044
30
0
11
-23.600000000000044
21
-47.649000000000044
31
1.3827950745343776e-15
0
LINE
5
109
100
AcDbEntity
8
0
100
AcDbLine
10
-23.000000000000014
20
-48
30
2.2204460492503131e-15
11
23.000000000000036
21
-48
31
2.2204460492503131e-15
0
LWPOLYLINE
5
110
100
AcDbEntity
8
0
100
AcDbPolyline
90
4
70
1
43
0.0
10
37
20
6.900000000008677
10
-37
20
6.900000000008677
10
-37
20
-18.099999999991322
10
37
20
-18.099999999991322
0
LINE
5
111
100
AcDbEntity
8
0
100
AcDbLine
10
39
20
-12.500000000000339
30
0
11
39
21
-18.971063356184729
31
1.2325951644078309e-31
0
ARC
5
112
100
AcDbEntity
8
0
100
AcDbCircle
10
40
20
-12.500000000000341
30
0
40
0.99999999999999867
210
0
220
-0
230
1
100
AcDbArc
50
90
51
180
0
LINE
5
113
100
AcDbEntity
8
0
100
AcDbLine
10
45.000000000002757
20
-11.500000000000339
30
0
11
40
21
-11.500000000000343
31
0
0
LINE
5
114
100
AcDbEntity
8
0
100
AcDbLine
10
44.900000000008745
20
4.4999999999999414
30
0
11
44.900000000008745
21
-11.50000000000006
31
0
0
LINE
5
115
100
AcDbEntity
8
0
100
AcDbLine
10
44.900000000008745
20
6.4999999999999396
30
0
11
44.900000000008745
21
4.4999999999999414
31
0
0
LINE
5
116
100
AcDbEntity
8
0
100
AcDbLine
10
44.900000000008745
20
6.4999999999999396
30
0
11
44.900000000000013
21
9.099999999999941
31
-1.9364798970248757e-15
0
LINE
5
117
100
AcDbEntity
8
0
100
AcDbLine
10
44.900000000000013
20
9.099999999999941
30
-1.9364798970248757e-15
11
44.900000000004368
21
9.8345877130231933
31
-9.6823994851243783e-16
0
LINE
5
118
100
AcDbEntity
8
0
100
AcDbLine
10
44.900000000004368
20
9.8345877130231933
30
-9.6823994851243783e-16
11
-44.948996264828658
21
9.8345877135565907
31
-9.6823994851243783e-16
0
LINE
5
119
100
AcDbEntity
8
0
100
AcDbLine
10
-44.948996264828658
20
9.8345877135565907
30
-9.6823994851243783e-16
11
-44.948996264955639
21
-11.555076516516385
31
-9.6823994851243783e-16
0
LINE
5
120
100
AcDbEntity
8
0
100
AcDbLine
10
-44.948996264955639
20
-11.555076516516385
30
-9.6823994851243783e-16
11
-38.942309734614668
21
-11.555076516552045
31
-9.6823994851243783e-16
0
LINE
5
121
100
AcDbEntity
8
0
100
AcDbLine
10
-38.942309734614668
20
-11.555076516552045
30
-9.6823994851243783e-16
11
-38.942309734614668
21
-18.971063356184729
31
-9.6823994851243783e-16
0
ENDSEC
0
SECTION
2
OBJECTS
0
DICTIONARY
5
C
100
AcDbDictionary
3
ACAD_GROUP
350
D
3
ACAD_MLINESTYLE
350
17
0
DICTIONARY
5
D
100
AcDbDictionary
0
DICTIONARY
5
1A
330
C
100
AcDbDictionary
0
DICTIONARY
5
17
100
AcDbDictionary
0
ENDSEC
0
EOF
