%TF.GenerationSoftware,KiCad,Pcbnew,9.0.6*%
%TF.CreationDate,2026-01-26T16:21:30-03:00*%
%TF.ProjectId,V1_ robot_controller,56315f20-726f-4626-9f74-5f636f6e7472,rev?*%
%TF.SameCoordinates,Original*%
%TF.FileFunction,Copper,L1,Top*%
%TF.FilePolarity,Positive*%
%FSLAX46Y46*%
G04 Gerber Fmt 4.6, Leading zero omitted, Abs format (unit mm)*
G04 Created by KiCad (PCBNEW 9.0.6) date 2026-01-26 16:21:30*
%MOMM*%
%LPD*%
G01*
G04 APERTURE LIST*
G04 Aperture macros list*
%AMRoundRect*
0 Rectangle with rounded corners*
0 $1 Rounding radius*
0 $2 $3 $4 $5 $6 $7 $8 $9 X,Y pos of 4 corners*
0 Add a 4 corners polygon primitive as box body*
4,1,4,$2,$3,$4,$5,$6,$7,$8,$9,$2,$3,0*
0 Add four circle primitives for the rounded corners*
1,1,$1+$1,$2,$3*
1,1,$1+$1,$4,$5*
1,1,$1+$1,$6,$7*
1,1,$1+$1,$8,$9*
0 Add four rect primitives between the rounded corners*
20,1,$1+$1,$2,$3,$4,$5,0*
20,1,$1+$1,$4,$5,$6,$7,0*
20,1,$1+$1,$6,$7,$8,$9,0*
20,1,$1+$1,$8,$9,$2,$3,0*%
G04 Aperture macros list end*
%TA.AperFunction,ComponentPad*%
%ADD10C,1.600000*%
%TD*%
%TA.AperFunction,ComponentPad*%
%ADD11C,1.980000*%
%TD*%
%TA.AperFunction,ComponentPad*%
%ADD12R,2.000000X2.000000*%
%TD*%
%TA.AperFunction,ComponentPad*%
%ADD13C,2.000000*%
%TD*%
%TA.AperFunction,ComponentPad*%
%ADD14C,3.750000*%
%TD*%
%TA.AperFunction,ComponentPad*%
%ADD15R,3.750000X3.750000*%
%TD*%
%TA.AperFunction,ComponentPad*%
%ADD16RoundRect,0.250000X0.550000X0.550000X-0.550000X0.550000X-0.550000X-0.550000X0.550000X-0.550000X0*%
%TD*%
%TA.AperFunction,ComponentPad*%
%ADD17RoundRect,0.249999X-0.850001X-0.850001X0.850001X-0.850001X0.850001X0.850001X-0.850001X0.850001X0*%
%TD*%
%TA.AperFunction,ComponentPad*%
%ADD18C,2.200000*%
%TD*%
%TA.AperFunction,ComponentPad*%
%ADD19O,1.740000X2.190000*%
%TD*%
%TA.AperFunction,ComponentPad*%
%ADD20RoundRect,0.250000X0.620000X0.845000X-0.620000X0.845000X-0.620000X-0.845000X0.620000X-0.845000X0*%
%TD*%
%TA.AperFunction,ComponentPad*%
%ADD21R,2.500000X1.500000*%
%TD*%
%TA.AperFunction,ComponentPad*%
%ADD22O,2.500000X1.500000*%
%TD*%
%TA.AperFunction,ComponentPad*%
%ADD23C,1.800000*%
%TD*%
%TA.AperFunction,ComponentPad*%
%ADD24R,1.524000X1.524000*%
%TD*%
%TA.AperFunction,ComponentPad*%
%ADD25R,1.905000X2.000000*%
%TD*%
%TA.AperFunction,ComponentPad*%
%ADD26O,1.905000X2.000000*%
%TD*%
%TA.AperFunction,ViaPad*%
%ADD27C,5.000000*%
%TD*%
%TA.AperFunction,ViaPad*%
%ADD28C,2.000000*%
%TD*%
%TA.AperFunction,Conductor*%
%ADD29C,2.000000*%
%TD*%
%TA.AperFunction,Conductor*%
%ADD30C,1.000000*%
%TD*%
%TA.AperFunction,Conductor*%
%ADD31C,0.800000*%
%TD*%
G04 APERTURE END LIST*
D10*
%TO.P,C2,1*%
%TO.N,+5V*%
X180200000Y-107700000D03*
%TO.P,C2,2*%
%TO.N,GND*%
X180200000Y-105200000D03*
%TD*%
D11*
%TO.P,U3,1,VM*%
%TO.N,VMOT*%
X218143000Y-107026654D03*
%TO.P,U3,2,VCC*%
%TO.N,+3.3V*%
X218143000Y-104486654D03*
%TO.P,U3,3,GND*%
%TO.N,GND*%
X218143000Y-101946654D03*
%TO.P,U3,4,A01*%
%TO.N,Net-(J4-Pin_1)*%
X218143000Y-99406654D03*
%TO.P,U3,5,A02*%
%TO.N,Net-(J4-Pin_2)*%
X218143000Y-96866654D03*
%TO.P,U3,6,B02*%
%TO.N,Net-(J3-Pin_1)*%
X218143000Y-94326654D03*
%TO.P,U3,7,B01*%
%TO.N,Net-(J3-Pin_2)*%
X218143000Y-91786654D03*
%TO.P,U3,8,GND*%
%TO.N,GND*%
X218143000Y-89246654D03*
%TO.P,U3,9,GND*%
X202903000Y-89246654D03*
%TO.P,U3,10,PWMB*%
%TO.N,PWMB*%
X202903000Y-91786654D03*
%TO.P,U3,11,BI2*%
%TO.N,INB2*%
X202903000Y-94326654D03*
%TO.P,U3,12,BI1*%
%TO.N,INB1*%
X202903000Y-96866654D03*
%TO.P,U3,13,STBY*%
%TO.N,+3.3V*%
X202903000Y-99406654D03*
%TO.P,U3,14,AI1*%
%TO.N,INA1*%
X202903000Y-101946654D03*
%TO.P,U3,15,AI2*%
%TO.N,INA2*%
X202903000Y-104486654D03*
%TO.P,U3,16,PWMA*%
%TO.N,PWMA*%
X202903000Y-107026654D03*
%TD*%
D12*
%TO.P,J9,1,Pin_1*%
%TO.N,+3.3V*%
X172630000Y-96725000D03*
D13*
%TO.P,J9,2,Pin_2*%
%TO.N,GND*%
X172630000Y-94185000D03*
%TO.P,J9,3,Pin_3*%
%TO.N,SCL*%
X172630000Y-91645000D03*
%TO.P,J9,4,Pin_4*%
%TO.N,SDA*%
X172630000Y-89105000D03*
%TD*%
D14*
%TO.P,J2,N,N*%
%TO.N,Net-(J1-PadP)*%
X223903000Y-90571654D03*
D15*
%TO.P,J2,P,P*%
%TO.N,GND*%
X223903000Y-95571654D03*
%TD*%
D16*
%TO.P,C5,1*%
%TO.N,+5V*%
X169950000Y-106250000D03*
D10*
%TO.P,C5,2*%
%TO.N,GND*%
X167450000Y-106250000D03*
%TD*%
D12*
%TO.P,J7,1,Pin_1*%
%TO.N,+5V*%
X163275000Y-108565000D03*
D13*
%TO.P,J7,2,Pin_2*%
%TO.N,GND*%
X163275000Y-106025000D03*
%TO.P,J7,3,Pin_3*%
%TO.N,Net-(J7-Pin_3)*%
X163275000Y-103485000D03*
%TD*%
D17*
%TO.P,D1,1,K*%
%TO.N,Net-(D1-K)*%
X223123000Y-101021654D03*
D18*
%TO.P,D1,2,A*%
%TO.N,Net-(D1-A)*%
X233283000Y-101021654D03*
%TD*%
D12*
%TO.P,J10,1,Pin_1*%
%TO.N,+3.3V*%
X169020000Y-96725000D03*
D13*
%TO.P,J10,2,Pin_2*%
%TO.N,GND*%
X169020000Y-94185000D03*
%TO.P,J10,3,Pin_3*%
%TO.N,SCL*%
X169020000Y-91645000D03*
%TO.P,J10,4,Pin_4*%
%TO.N,SDA*%
X169020000Y-89105000D03*
%TD*%
D19*
%TO.P,J4,1,Pin_1*%
%TO.N,Net-(J4-Pin_1)*%
X214893000Y-107571654D03*
%TO.P,J4,2,Pin_2*%
%TO.N,Net-(J4-Pin_2)*%
X212353000Y-107571654D03*
%TD*%
D12*
%TO.P,J11,1,Pin_1*%
%TO.N,+3.3V*%
X165445000Y-96725000D03*
D13*
%TO.P,J11,2,Pin_2*%
%TO.N,GND*%
X165445000Y-94185000D03*
%TO.P,J11,3,Pin_3*%
%TO.N,SCL*%
X165445000Y-91645000D03*
%TO.P,J11,4,Pin_4*%
%TO.N,SDA*%
X165445000Y-89105000D03*
%TD*%
D14*
%TO.P,J1,N,N*%
%TO.N,Net-(D1-A)*%
X229603000Y-95571654D03*
D15*
%TO.P,J1,P,P*%
%TO.N,Net-(J1-PadP)*%
X229603000Y-90571654D03*
%TD*%
D12*
%TO.P,J6,1,Pin_1*%
%TO.N,+5V*%
X159775000Y-108655000D03*
D13*
%TO.P,J6,2,Pin_2*%
%TO.N,GND*%
X159775000Y-106115000D03*
%TO.P,J6,3,Pin_3*%
%TO.N,Net-(J6-Pin_3)*%
X159775000Y-103575000D03*
%TD*%
%TO.P,SW2,1,1*%
%TO.N,GND*%
X154900000Y-93150000D03*
X154900000Y-99650000D03*
%TO.P,SW2,2,2*%
%TO.N,Net-(U1-GPIO0)*%
X150400000Y-93150000D03*
X150400000Y-99650000D03*
%TD*%
D12*
%TO.P,J5,1,Pin_1*%
%TO.N,+3.3V*%
X179795000Y-96715000D03*
D13*
%TO.P,J5,2,Pin_2*%
%TO.N,GND*%
X179795000Y-94175000D03*
%TO.P,J5,3,Pin_3*%
%TO.N,SDA*%
X179795000Y-91635000D03*
%TO.P,J5,4,Pin_4*%
%TO.N,SCL*%
X179795000Y-89095000D03*
%TD*%
D20*
%TO.P,J3,1,Pin_1*%
%TO.N,Net-(J3-Pin_1)*%
X208768000Y-107571654D03*
D19*
%TO.P,J3,2,Pin_2*%
%TO.N,Net-(J3-Pin_2)*%
X206228000Y-107571654D03*
%TD*%
D21*
%TO.P,SW1,1,A*%
%TO.N,VMOT*%
X226950000Y-109300000D03*
D22*
%TO.P,SW1,2,B*%
%TO.N,Net-(D1-K)*%
X226950000Y-107300000D03*
%TO.P,SW1,3,C*%
%TO.N,unconnected-(SW1-C-Pad3)*%
X226950000Y-105300000D03*
%TD*%
D12*
%TO.P,J8,1,Pin_1*%
%TO.N,+3.3V*%
X176220000Y-96725000D03*
D13*
%TO.P,J8,2,Pin_2*%
%TO.N,GND*%
X176220000Y-94185000D03*
%TO.P,J8,3,Pin_3*%
%TO.N,SCL*%
X176220000Y-91645000D03*
%TO.P,J8,4,Pin_4*%
%TO.N,SDA*%
X176220000Y-89105000D03*
%TD*%
D10*
%TO.P,C1,1*%
%TO.N,VMOT*%
X194525000Y-111300000D03*
%TO.P,C1,2*%
%TO.N,GND*%
X192025000Y-111300000D03*
%TD*%
D23*
%TO.P,U1,0,GPIO0*%
%TO.N,Net-(U1-GPIO0)*%
X183238000Y-91241654D03*
%TO.P,U1,1,GPIO1*%
%TO.N,Net-(U1-GPIO1)*%
X183238000Y-93781654D03*
%TO.P,U1,2,GPIO2*%
%TO.N,Net-(J14-Pin_3)*%
X183238000Y-96321654D03*
%TO.P,U1,3,GPIO3*%
%TO.N,QTR_DER*%
X183238000Y-98861654D03*
%TO.P,U1,3.3,3V3*%
%TO.N,+3.3V*%
X183238000Y-103941654D03*
%TO.P,U1,4,GPIO4*%
%TO.N,QTR_IZQ*%
X183238000Y-101401654D03*
%TO.P,U1,5,GPIO5*%
%TO.N,PWMA*%
X198478000Y-109021654D03*
%TO.P,U1,5V,5V*%
%TO.N,+5V*%
X183238000Y-109021654D03*
%TO.P,U1,6,GPIO6*%
%TO.N,INA2*%
X198478000Y-106481654D03*
%TO.P,U1,7,GPIO7*%
%TO.N,INA1*%
X198478000Y-103941654D03*
%TO.P,U1,8,GPIO8*%
%TO.N,SDA*%
X198478000Y-101401654D03*
%TO.P,U1,9,GPIO9*%
%TO.N,SCL*%
X198478000Y-98861654D03*
%TO.P,U1,10,GPIO10*%
%TO.N,INB1*%
X198478000Y-96321654D03*
%TO.P,U1,20,GPIO20*%
%TO.N,INB2*%
X198478000Y-93781654D03*
%TO.P,U1,21,GPIO21*%
%TO.N,PWMB*%
X198478000Y-91241654D03*
%TO.P,U1,G,GND*%
%TO.N,GND*%
X183238000Y-106481654D03*
%TD*%
D12*
%TO.P,J13,1,Pin_1*%
%TO.N,+3.3V*%
X158245000Y-96725000D03*
D13*
%TO.P,J13,2,Pin_2*%
%TO.N,GND*%
X158245000Y-94185000D03*
%TO.P,J13,3,Pin_3*%
%TO.N,SCL*%
X158245000Y-91645000D03*
%TO.P,J13,4,Pin_4*%
%TO.N,SDA*%
X158245000Y-89105000D03*
%TD*%
%TO.P,U4,GND_1,GND*%
%TO.N,GND*%
X172030000Y-110175000D03*
%TO.P,U4,GND_2,GND*%
X172030000Y-100015000D03*
%TO.P,U4,HV,HV*%
%TO.N,+5V*%
X174570000Y-110175000D03*
D24*
%TO.P,U4,HV1,HV1*%
%TO.N,Net-(J6-Pin_3)*%
X179650000Y-110175000D03*
D13*
%TO.P,U4,HV2,HV2*%
%TO.N,Net-(J7-Pin_3)*%
X177110000Y-110175000D03*
%TO.P,U4,HV3,HV3*%
%TO.N,unconnected-(U4-PadHV3)*%
X169490000Y-110175000D03*
%TO.P,U4,HV4,HV4*%
%TO.N,unconnected-(U4-PadHV4)*%
X166950000Y-110175000D03*
%TO.P,U4,LV,LV*%
%TO.N,+3.3V*%
X174570000Y-100015000D03*
D24*
%TO.P,U4,LV1,LV1*%
%TO.N,QTR_DER*%
X179650000Y-100015000D03*
D13*
%TO.P,U4,LV2,LV2*%
%TO.N,QTR_IZQ*%
X177110000Y-100015000D03*
%TO.P,U4,LV3,LV3*%
%TO.N,unconnected-(U4-PadLV3)*%
X169490000Y-100015000D03*
%TO.P,U4,LV4,LV4*%
%TO.N,unconnected-(U4-PadLV4)*%
X166950000Y-100015000D03*
%TD*%
D12*
%TO.P,J12,1,Pin_1*%
%TO.N,+3.3V*%
X161845000Y-96725000D03*
D13*
%TO.P,J12,2,Pin_2*%
%TO.N,GND*%
X161845000Y-94185000D03*
%TO.P,J12,3,Pin_3*%
%TO.N,SCL*%
X161845000Y-91645000D03*
%TO.P,J12,4,Pin_4*%
%TO.N,SDA*%
X161845000Y-89105000D03*
%TD*%
D16*
%TO.P,C3,1*%
%TO.N,VMOT*%
X194525000Y-109150000D03*
D10*
%TO.P,C3,2*%
%TO.N,GND*%
X192025000Y-109150000D03*
%TD*%
D12*
%TO.P,J14,1,Pin_1*%
%TO.N,GND*%
X185575000Y-106555000D03*
D13*
%TO.P,J14,2,Pin_2*%
%TO.N,+3.3V*%
X185575000Y-104015000D03*
%TO.P,J14,3,Pin_3*%
%TO.N,Net-(J14-Pin_3)*%
X185575000Y-101475000D03*
%TD*%
%TO.P,SW3,1,1*%
%TO.N,GND*%
X156500000Y-103425000D03*
X156500000Y-109925000D03*
%TO.P,SW3,2,2*%
%TO.N,Net-(U1-GPIO1)*%
X152000000Y-103425000D03*
X152000000Y-109925000D03*
%TD*%
D25*
%TO.P,U2,1,IN*%
%TO.N,VMOT*%
X194515000Y-106825000D03*
D26*
%TO.P,U2,2,GND*%
%TO.N,GND*%
X191975000Y-106825000D03*
%TO.P,U2,3,OUT*%
%TO.N,+5V*%
X189435000Y-106825000D03*
%TD*%
D27*
%TO.N,*%
X231625000Y-107450000D03*
X147460036Y-107468574D03*
D28*
%TO.N,Net-(U1-GPIO0)*%
X155024208Y-88254933D03*
%TO.N,Net-(U1-GPIO1)*%
X155052827Y-90704768D03*
%TD*%
D29*
%TO.N,GND*%
X191975000Y-94739450D02*
X191975000Y-106825000D01*
X198457796Y-88256654D02*
X191975000Y-94739450D01*
X202903000Y-89246654D02*
X201913000Y-88256654D01*
X201913000Y-88256654D02*
X198457796Y-88256654D01*
D30*
%TO.N,+3.3V*%
X202903000Y-99406654D02*
X202698011Y-99406654D01*
X200103000Y-109694752D02*
X196746752Y-113051000D01*
X186637000Y-104015000D02*
X185575000Y-104015000D01*
X200103000Y-102001665D02*
X200103000Y-109694752D01*
X202698011Y-99406654D02*
X200103000Y-102001665D01*
X191299712Y-113051000D02*
X187376000Y-109127288D01*
X187376000Y-104754000D02*
X186637000Y-104015000D01*
X196746752Y-113051000D02*
X191299712Y-113051000D01*
X187376000Y-109127288D02*
X187376000Y-104754000D01*
D31*
%TO.N,SDA*%
X178750000Y-91635000D02*
X176220000Y-89105000D01*
X179795000Y-91635000D02*
X178750000Y-91635000D01*
D30*
%TO.N,Net-(U1-GPIO0)*%
X183238000Y-89991001D02*
X183238000Y-91241654D01*
X180540999Y-87294000D02*
X183238000Y-89991001D01*
X155024208Y-88254933D02*
X155985141Y-87294000D01*
X155985141Y-87294000D02*
X180540999Y-87294000D01*
%TO.N,Net-(U1-GPIO1)*%
X153073208Y-89747208D02*
X154030768Y-90704768D01*
X184863000Y-89563977D02*
X181142023Y-85843000D01*
X184863000Y-92156654D02*
X184863000Y-89563977D01*
X181142023Y-85843000D02*
X154677010Y-85843000D01*
X183238000Y-93781654D02*
X184863000Y-92156654D01*
X154677010Y-85843000D02*
X153073208Y-87446802D01*
X153073208Y-87446802D02*
X153073208Y-89747208D01*
X154030768Y-90704768D02*
X155052827Y-90704768D01*
%TD*%
M02*
