%TF.GenerationSoftware,KiCad,Pcbnew,9.0.6*%
%TF.CreationDate,2026-01-26T16:21:30-03:00*%
%TF.ProjectId,V1_ robot_controller,56315f20-726f-4626-9f74-5f636f6e7472,rev?*%
%TF.SameCoordinates,Original*%
%TF.FileFunction,Soldermask,Top*%
%TF.FilePolarity,Negative*%
%FSLAX46Y46*%
G04 Gerber Fmt 4.6, Leading zero omitted, Abs format (unit mm)*
G04 Created by KiCad (PCBNEW 9.0.6) date 2026-01-26 16:21:30*
%MOMM*%
%LPD*%
G01*
G04 APERTURE LIST*
G04 Aperture macros list*
%AMRoundRect*
0 Rectangle with rounded corners*
0 $1 Rounding radius*
0 $2 $3 $4 $5 $6 $7 $8 $9 X,Y pos of 4 corners*
0 Add a 4 corners polygon primitive as box body*
4,1,4,$2,$3,$4,$5,$6,$7,$8,$9,$2,$3,0*
0 Add four circle primitives for the rounded corners*
1,1,$1+$1,$2,$3*
1,1,$1+$1,$4,$5*
1,1,$1+$1,$6,$7*
1,1,$1+$1,$8,$9*
0 Add four rect primitives between the rounded corners*
20,1,$1+$1,$2,$3,$4,$5,0*
20,1,$1+$1,$4,$5,$6,$7,0*
20,1,$1+$1,$6,$7,$8,$9,0*
20,1,$1+$1,$8,$9,$2,$3,0*%
G04 Aperture macros list end*
%ADD10C,1.600000*%
%ADD11C,2.184000*%
%ADD12R,2.000000X2.000000*%
%ADD13C,2.000000*%
%ADD14C,3.954000*%
%ADD15RoundRect,0.102000X1.875000X-1.875000X1.875000X1.875000X-1.875000X1.875000X-1.875000X-1.875000X0*%
%ADD16RoundRect,0.250000X0.550000X0.550000X-0.550000X0.550000X-0.550000X-0.550000X0.550000X-0.550000X0*%
%ADD17RoundRect,0.249999X-0.850001X-0.850001X0.850001X-0.850001X0.850001X0.850001X-0.850001X0.850001X0*%
%ADD18C,2.200000*%
%ADD19O,1.740000X2.190000*%
%ADD20RoundRect,0.102000X-1.875000X1.875000X-1.875000X-1.875000X1.875000X-1.875000X1.875000X1.875000X0*%
%ADD21RoundRect,0.250000X0.620000X0.845000X-0.620000X0.845000X-0.620000X-0.845000X0.620000X-0.845000X0*%
%ADD22R,2.500000X1.500000*%
%ADD23O,2.500000X1.500000*%
%ADD24C,2.004000*%
%ADD25C,2.204000*%
%ADD26RoundRect,0.102000X-0.762000X0.762000X-0.762000X-0.762000X0.762000X-0.762000X0.762000X0.762000X0*%
%ADD27R,1.905000X2.000000*%
%ADD28O,1.905000X2.000000*%
G04 APERTURE END LIST*
D10*
%TO.C,C2*%
X180200000Y-107700000D03*
X180200000Y-105200000D03*
%TD*%
D11*
%TO.C,U3*%
X218143000Y-107026654D03*
X218143000Y-104486654D03*
X218143000Y-101946654D03*
X218143000Y-99406654D03*
X218143000Y-96866654D03*
X218143000Y-94326654D03*
X218143000Y-91786654D03*
X218143000Y-89246654D03*
X202903000Y-89246654D03*
X202903000Y-91786654D03*
X202903000Y-94326654D03*
X202903000Y-96866654D03*
X202903000Y-99406654D03*
X202903000Y-101946654D03*
X202903000Y-104486654D03*
X202903000Y-107026654D03*
%TD*%
D12*
%TO.C,J9*%
X172630000Y-96725000D03*
D13*
X172630000Y-94185000D03*
X172630000Y-91645000D03*
X172630000Y-89105000D03*
%TD*%
D14*
%TO.C,J2*%
X223903000Y-90571654D03*
D15*
X223903000Y-95571654D03*
%TD*%
D16*
%TO.C,C5*%
X169950000Y-106250000D03*
D10*
X167450000Y-106250000D03*
%TD*%
D12*
%TO.C,J7*%
X163275000Y-108565000D03*
D13*
X163275000Y-106025000D03*
X163275000Y-103485000D03*
%TD*%
D17*
%TO.C,D1*%
X223123000Y-101021654D03*
D18*
X233283000Y-101021654D03*
%TD*%
D12*
%TO.C,J10*%
X169020000Y-96725000D03*
D13*
X169020000Y-94185000D03*
X169020000Y-91645000D03*
X169020000Y-89105000D03*
%TD*%
D19*
%TO.C,J4*%
X214893000Y-107571654D03*
X212353000Y-107571654D03*
%TD*%
D12*
%TO.C,J11*%
X165445000Y-96725000D03*
D13*
X165445000Y-94185000D03*
X165445000Y-91645000D03*
X165445000Y-89105000D03*
%TD*%
D14*
%TO.C,J1*%
X229603000Y-95571654D03*
D20*
X229603000Y-90571654D03*
%TD*%
D12*
%TO.C,J6*%
X159775000Y-108655000D03*
D13*
X159775000Y-106115000D03*
X159775000Y-103575000D03*
%TD*%
%TO.C,SW2*%
X154900000Y-93150000D03*
X154900000Y-99650000D03*
X150400000Y-93150000D03*
X150400000Y-99650000D03*
%TD*%
D12*
%TO.C,J5*%
X179795000Y-96715000D03*
D13*
X179795000Y-94175000D03*
X179795000Y-91635000D03*
X179795000Y-89095000D03*
%TD*%
D21*
%TO.C,J3*%
X208768000Y-107571654D03*
D19*
X206228000Y-107571654D03*
%TD*%
D22*
%TO.C,SW1*%
X226950000Y-109300000D03*
D23*
X226950000Y-107300000D03*
X226950000Y-105300000D03*
%TD*%
D12*
%TO.C,J8*%
X176220000Y-96725000D03*
D13*
X176220000Y-94185000D03*
X176220000Y-91645000D03*
X176220000Y-89105000D03*
%TD*%
D10*
%TO.C,C1*%
X194525000Y-111300000D03*
X192025000Y-111300000D03*
%TD*%
D24*
%TO.C,U1*%
X183238000Y-91241654D03*
X183238000Y-93781654D03*
X183238000Y-96321654D03*
X183238000Y-98861654D03*
X183238000Y-103941654D03*
X183238000Y-101401654D03*
X198478000Y-109021654D03*
X183238000Y-109021654D03*
X198478000Y-106481654D03*
X198478000Y-103941654D03*
X198478000Y-101401654D03*
X198478000Y-98861654D03*
X198478000Y-96321654D03*
X198478000Y-93781654D03*
X198478000Y-91241654D03*
X183238000Y-106481654D03*
%TD*%
D12*
%TO.C,J13*%
X158245000Y-96725000D03*
D13*
X158245000Y-94185000D03*
X158245000Y-91645000D03*
X158245000Y-89105000D03*
%TD*%
D25*
%TO.C,U4*%
X172030000Y-110175000D03*
X172030000Y-100015000D03*
X174570000Y-110175000D03*
D26*
X179650000Y-110175000D03*
D25*
X177110000Y-110175000D03*
X169490000Y-110175000D03*
X166950000Y-110175000D03*
X174570000Y-100015000D03*
D26*
X179650000Y-100015000D03*
D25*
X177110000Y-100015000D03*
X169490000Y-100015000D03*
X166950000Y-100015000D03*
%TD*%
D12*
%TO.C,J12*%
X161845000Y-96725000D03*
D13*
X161845000Y-94185000D03*
X161845000Y-91645000D03*
X161845000Y-89105000D03*
%TD*%
D16*
%TO.C,C3*%
X194525000Y-109150000D03*
D10*
X192025000Y-109150000D03*
%TD*%
D12*
%TO.C,J14*%
X185575000Y-106555000D03*
D13*
X185575000Y-104015000D03*
X185575000Y-101475000D03*
%TD*%
%TO.C,SW3*%
X156500000Y-103425000D03*
X156500000Y-109925000D03*
X152000000Y-103425000D03*
X152000000Y-109925000D03*
%TD*%
D27*
%TO.C,U2*%
X194515000Y-106825000D03*
D28*
X191975000Y-106825000D03*
X189435000Y-106825000D03*
%TD*%
M02*
