%TF.GenerationSoftware,KiCad,Pcbnew,9.0.6*%
%TF.CreationDate,2026-01-26T16:21:30-03:00*%
%TF.ProjectId,V1_ robot_controller,56315f20-726f-4626-9f74-5f636f6e7472,rev?*%
%TF.SameCoordinates,Original*%
%TF.FileFunction,Legend,Top*%
%TF.FilePolarity,Positive*%
%FSLAX46Y46*%
G04 Gerber Fmt 4.6, Leading zero omitted, Abs format (unit mm)*
G04 Created by KiCad (PCBNEW 9.0.6) date 2026-01-26 16:21:30*
%MOMM*%
%LPD*%
G01*
G04 APERTURE LIST*
%ADD10C,0.150000*%
%ADD11C,0.120000*%
%ADD12C,0.127000*%
%ADD13C,0.200000*%
G04 APERTURE END LIST*
D10*
X178309580Y-106616666D02*
X178357200Y-106664285D01*
X178357200Y-106664285D02*
X178404819Y-106807142D01*
X178404819Y-106807142D02*
X178404819Y-106902380D01*
X178404819Y-106902380D02*
X178357200Y-107045237D01*
X178357200Y-107045237D02*
X178261961Y-107140475D01*
X178261961Y-107140475D02*
X178166723Y-107188094D01*
X178166723Y-107188094D02*
X177976247Y-107235713D01*
X177976247Y-107235713D02*
X177833390Y-107235713D01*
X177833390Y-107235713D02*
X177642914Y-107188094D01*
X177642914Y-107188094D02*
X177547676Y-107140475D01*
X177547676Y-107140475D02*
X177452438Y-107045237D01*
X177452438Y-107045237D02*
X177404819Y-106902380D01*
X177404819Y-106902380D02*
X177404819Y-106807142D01*
X177404819Y-106807142D02*
X177452438Y-106664285D01*
X177452438Y-106664285D02*
X177500057Y-106616666D01*
X177500057Y-106235713D02*
X177452438Y-106188094D01*
X177452438Y-106188094D02*
X177404819Y-106092856D01*
X177404819Y-106092856D02*
X177404819Y-105854761D01*
X177404819Y-105854761D02*
X177452438Y-105759523D01*
X177452438Y-105759523D02*
X177500057Y-105711904D01*
X177500057Y-105711904D02*
X177595295Y-105664285D01*
X177595295Y-105664285D02*
X177690533Y-105664285D01*
X177690533Y-105664285D02*
X177833390Y-105711904D01*
X177833390Y-105711904D02*
X178404819Y-106283332D01*
X178404819Y-106283332D02*
X178404819Y-105664285D01*
X208571095Y-104471473D02*
X208571095Y-105280996D01*
X208571095Y-105280996D02*
X208618714Y-105376234D01*
X208618714Y-105376234D02*
X208666333Y-105423854D01*
X208666333Y-105423854D02*
X208761571Y-105471473D01*
X208761571Y-105471473D02*
X208952047Y-105471473D01*
X208952047Y-105471473D02*
X209047285Y-105423854D01*
X209047285Y-105423854D02*
X209094904Y-105376234D01*
X209094904Y-105376234D02*
X209142523Y-105280996D01*
X209142523Y-105280996D02*
X209142523Y-104471473D01*
X209523476Y-104471473D02*
X210142523Y-104471473D01*
X210142523Y-104471473D02*
X209809190Y-104852425D01*
X209809190Y-104852425D02*
X209952047Y-104852425D01*
X209952047Y-104852425D02*
X210047285Y-104900044D01*
X210047285Y-104900044D02*
X210094904Y-104947663D01*
X210094904Y-104947663D02*
X210142523Y-105042901D01*
X210142523Y-105042901D02*
X210142523Y-105280996D01*
X210142523Y-105280996D02*
X210094904Y-105376234D01*
X210094904Y-105376234D02*
X210047285Y-105423854D01*
X210047285Y-105423854D02*
X209952047Y-105471473D01*
X209952047Y-105471473D02*
X209666333Y-105471473D01*
X209666333Y-105471473D02*
X209571095Y-105423854D01*
X209571095Y-105423854D02*
X209523476Y-105376234D01*
X172371666Y-96790819D02*
X172371666Y-97505104D01*
X172371666Y-97505104D02*
X172324047Y-97647961D01*
X172324047Y-97647961D02*
X172228809Y-97743200D01*
X172228809Y-97743200D02*
X172085952Y-97790819D01*
X172085952Y-97790819D02*
X171990714Y-97790819D01*
X172895476Y-97790819D02*
X173085952Y-97790819D01*
X173085952Y-97790819D02*
X173181190Y-97743200D01*
X173181190Y-97743200D02*
X173228809Y-97695580D01*
X173228809Y-97695580D02*
X173324047Y-97552723D01*
X173324047Y-97552723D02*
X173371666Y-97362247D01*
X173371666Y-97362247D02*
X173371666Y-96981295D01*
X173371666Y-96981295D02*
X173324047Y-96886057D01*
X173324047Y-96886057D02*
X173276428Y-96838438D01*
X173276428Y-96838438D02*
X173181190Y-96790819D01*
X173181190Y-96790819D02*
X172990714Y-96790819D01*
X172990714Y-96790819D02*
X172895476Y-96838438D01*
X172895476Y-96838438D02*
X172847857Y-96886057D01*
X172847857Y-96886057D02*
X172800238Y-96981295D01*
X172800238Y-96981295D02*
X172800238Y-97219390D01*
X172800238Y-97219390D02*
X172847857Y-97314628D01*
X172847857Y-97314628D02*
X172895476Y-97362247D01*
X172895476Y-97362247D02*
X172990714Y-97409866D01*
X172990714Y-97409866D02*
X173181190Y-97409866D01*
X173181190Y-97409866D02*
X173276428Y-97362247D01*
X173276428Y-97362247D02*
X173324047Y-97314628D01*
X173324047Y-97314628D02*
X173371666Y-97219390D01*
X219757748Y-93914987D02*
X220472033Y-93914987D01*
X220472033Y-93914987D02*
X220614890Y-93962606D01*
X220614890Y-93962606D02*
X220710129Y-94057844D01*
X220710129Y-94057844D02*
X220757748Y-94200701D01*
X220757748Y-94200701D02*
X220757748Y-94295939D01*
X219852986Y-93486415D02*
X219805367Y-93438796D01*
X219805367Y-93438796D02*
X219757748Y-93343558D01*
X219757748Y-93343558D02*
X219757748Y-93105463D01*
X219757748Y-93105463D02*
X219805367Y-93010225D01*
X219805367Y-93010225D02*
X219852986Y-92962606D01*
X219852986Y-92962606D02*
X219948224Y-92914987D01*
X219948224Y-92914987D02*
X220043462Y-92914987D01*
X220043462Y-92914987D02*
X220186319Y-92962606D01*
X220186319Y-92962606D02*
X220757748Y-93534034D01*
X220757748Y-93534034D02*
X220757748Y-92914987D01*
X168533333Y-111009580D02*
X168485714Y-111057200D01*
X168485714Y-111057200D02*
X168342857Y-111104819D01*
X168342857Y-111104819D02*
X168247619Y-111104819D01*
X168247619Y-111104819D02*
X168104762Y-111057200D01*
X168104762Y-111057200D02*
X168009524Y-110961961D01*
X168009524Y-110961961D02*
X167961905Y-110866723D01*
X167961905Y-110866723D02*
X167914286Y-110676247D01*
X167914286Y-110676247D02*
X167914286Y-110533390D01*
X167914286Y-110533390D02*
X167961905Y-110342914D01*
X167961905Y-110342914D02*
X168009524Y-110247676D01*
X168009524Y-110247676D02*
X168104762Y-110152438D01*
X168104762Y-110152438D02*
X168247619Y-110104819D01*
X168247619Y-110104819D02*
X168342857Y-110104819D01*
X168342857Y-110104819D02*
X168485714Y-110152438D01*
X168485714Y-110152438D02*
X168533333Y-110200057D01*
X169438095Y-110104819D02*
X168961905Y-110104819D01*
X168961905Y-110104819D02*
X168914286Y-110581009D01*
X168914286Y-110581009D02*
X168961905Y-110533390D01*
X168961905Y-110533390D02*
X169057143Y-110485771D01*
X169057143Y-110485771D02*
X169295238Y-110485771D01*
X169295238Y-110485771D02*
X169390476Y-110533390D01*
X169390476Y-110533390D02*
X169438095Y-110581009D01*
X169438095Y-110581009D02*
X169485714Y-110676247D01*
X169485714Y-110676247D02*
X169485714Y-110914342D01*
X169485714Y-110914342D02*
X169438095Y-111009580D01*
X169438095Y-111009580D02*
X169390476Y-111057200D01*
X169390476Y-111057200D02*
X169295238Y-111104819D01*
X169295238Y-111104819D02*
X169057143Y-111104819D01*
X169057143Y-111104819D02*
X168961905Y-111057200D01*
X168961905Y-111057200D02*
X168914286Y-111009580D01*
X162941666Y-110399819D02*
X162941666Y-111114104D01*
X162941666Y-111114104D02*
X162894047Y-111256961D01*
X162894047Y-111256961D02*
X162798809Y-111352200D01*
X162798809Y-111352200D02*
X162655952Y-111399819D01*
X162655952Y-111399819D02*
X162560714Y-111399819D01*
X163322619Y-110399819D02*
X163989285Y-110399819D01*
X163989285Y-110399819D02*
X163560714Y-111399819D01*
X227464905Y-99006473D02*
X227464905Y-98006473D01*
X227464905Y-98006473D02*
X227703000Y-98006473D01*
X227703000Y-98006473D02*
X227845857Y-98054092D01*
X227845857Y-98054092D02*
X227941095Y-98149330D01*
X227941095Y-98149330D02*
X227988714Y-98244568D01*
X227988714Y-98244568D02*
X228036333Y-98435044D01*
X228036333Y-98435044D02*
X228036333Y-98577901D01*
X228036333Y-98577901D02*
X227988714Y-98768377D01*
X227988714Y-98768377D02*
X227941095Y-98863615D01*
X227941095Y-98863615D02*
X227845857Y-98958854D01*
X227845857Y-98958854D02*
X227703000Y-99006473D01*
X227703000Y-99006473D02*
X227464905Y-99006473D01*
X228988714Y-99006473D02*
X228417286Y-99006473D01*
X228703000Y-99006473D02*
X228703000Y-98006473D01*
X228703000Y-98006473D02*
X228607762Y-98149330D01*
X228607762Y-98149330D02*
X228512524Y-98244568D01*
X228512524Y-98244568D02*
X228417286Y-98292187D01*
X222861095Y-99376473D02*
X222861095Y-98376473D01*
X223432523Y-99376473D02*
X223003952Y-98805044D01*
X223432523Y-98376473D02*
X222861095Y-98947901D01*
X168285476Y-96790819D02*
X168285476Y-97505104D01*
X168285476Y-97505104D02*
X168237857Y-97647961D01*
X168237857Y-97647961D02*
X168142619Y-97743200D01*
X168142619Y-97743200D02*
X167999762Y-97790819D01*
X167999762Y-97790819D02*
X167904524Y-97790819D01*
X169285476Y-97790819D02*
X168714048Y-97790819D01*
X168999762Y-97790819D02*
X168999762Y-96790819D01*
X168999762Y-96790819D02*
X168904524Y-96933676D01*
X168904524Y-96933676D02*
X168809286Y-97028914D01*
X168809286Y-97028914D02*
X168714048Y-97076533D01*
X169904524Y-96790819D02*
X169999762Y-96790819D01*
X169999762Y-96790819D02*
X170095000Y-96838438D01*
X170095000Y-96838438D02*
X170142619Y-96886057D01*
X170142619Y-96886057D02*
X170190238Y-96981295D01*
X170190238Y-96981295D02*
X170237857Y-97171771D01*
X170237857Y-97171771D02*
X170237857Y-97409866D01*
X170237857Y-97409866D02*
X170190238Y-97600342D01*
X170190238Y-97600342D02*
X170142619Y-97695580D01*
X170142619Y-97695580D02*
X170095000Y-97743200D01*
X170095000Y-97743200D02*
X169999762Y-97790819D01*
X169999762Y-97790819D02*
X169904524Y-97790819D01*
X169904524Y-97790819D02*
X169809286Y-97743200D01*
X169809286Y-97743200D02*
X169761667Y-97695580D01*
X169761667Y-97695580D02*
X169714048Y-97600342D01*
X169714048Y-97600342D02*
X169666429Y-97409866D01*
X169666429Y-97409866D02*
X169666429Y-97171771D01*
X169666429Y-97171771D02*
X169714048Y-96981295D01*
X169714048Y-96981295D02*
X169761667Y-96886057D01*
X169761667Y-96886057D02*
X169809286Y-96838438D01*
X169809286Y-96838438D02*
X169904524Y-96790819D01*
X213289666Y-111146473D02*
X213289666Y-111860758D01*
X213289666Y-111860758D02*
X213242047Y-112003615D01*
X213242047Y-112003615D02*
X213146809Y-112098854D01*
X213146809Y-112098854D02*
X213003952Y-112146473D01*
X213003952Y-112146473D02*
X212908714Y-112146473D01*
X214194428Y-111479806D02*
X214194428Y-112146473D01*
X213956333Y-111098854D02*
X213718238Y-111813139D01*
X213718238Y-111813139D02*
X214337285Y-111813139D01*
X164860476Y-97280819D02*
X164860476Y-97995104D01*
X164860476Y-97995104D02*
X164812857Y-98137961D01*
X164812857Y-98137961D02*
X164717619Y-98233200D01*
X164717619Y-98233200D02*
X164574762Y-98280819D01*
X164574762Y-98280819D02*
X164479524Y-98280819D01*
X165860476Y-98280819D02*
X165289048Y-98280819D01*
X165574762Y-98280819D02*
X165574762Y-97280819D01*
X165574762Y-97280819D02*
X165479524Y-97423676D01*
X165479524Y-97423676D02*
X165384286Y-97518914D01*
X165384286Y-97518914D02*
X165289048Y-97566533D01*
X166812857Y-98280819D02*
X166241429Y-98280819D01*
X166527143Y-98280819D02*
X166527143Y-97280819D01*
X166527143Y-97280819D02*
X166431905Y-97423676D01*
X166431905Y-97423676D02*
X166336667Y-97518914D01*
X166336667Y-97518914D02*
X166241429Y-97566533D01*
X159441666Y-110489819D02*
X159441666Y-111204104D01*
X159441666Y-111204104D02*
X159394047Y-111346961D01*
X159394047Y-111346961D02*
X159298809Y-111442200D01*
X159298809Y-111442200D02*
X159155952Y-111489819D01*
X159155952Y-111489819D02*
X159060714Y-111489819D01*
X160346428Y-110489819D02*
X160155952Y-110489819D01*
X160155952Y-110489819D02*
X160060714Y-110537438D01*
X160060714Y-110537438D02*
X160013095Y-110585057D01*
X160013095Y-110585057D02*
X159917857Y-110727914D01*
X159917857Y-110727914D02*
X159870238Y-110918390D01*
X159870238Y-110918390D02*
X159870238Y-111299342D01*
X159870238Y-111299342D02*
X159917857Y-111394580D01*
X159917857Y-111394580D02*
X159965476Y-111442200D01*
X159965476Y-111442200D02*
X160060714Y-111489819D01*
X160060714Y-111489819D02*
X160251190Y-111489819D01*
X160251190Y-111489819D02*
X160346428Y-111442200D01*
X160346428Y-111442200D02*
X160394047Y-111394580D01*
X160394047Y-111394580D02*
X160441666Y-111299342D01*
X160441666Y-111299342D02*
X160441666Y-111061247D01*
X160441666Y-111061247D02*
X160394047Y-110966009D01*
X160394047Y-110966009D02*
X160346428Y-110918390D01*
X160346428Y-110918390D02*
X160251190Y-110870771D01*
X160251190Y-110870771D02*
X160060714Y-110870771D01*
X160060714Y-110870771D02*
X159965476Y-110918390D01*
X159965476Y-110918390D02*
X159917857Y-110966009D01*
X159917857Y-110966009D02*
X159870238Y-111061247D01*
X157307200Y-97733332D02*
X157354819Y-97590475D01*
X157354819Y-97590475D02*
X157354819Y-97352380D01*
X157354819Y-97352380D02*
X157307200Y-97257142D01*
X157307200Y-97257142D02*
X157259580Y-97209523D01*
X157259580Y-97209523D02*
X157164342Y-97161904D01*
X157164342Y-97161904D02*
X157069104Y-97161904D01*
X157069104Y-97161904D02*
X156973866Y-97209523D01*
X156973866Y-97209523D02*
X156926247Y-97257142D01*
X156926247Y-97257142D02*
X156878628Y-97352380D01*
X156878628Y-97352380D02*
X156831009Y-97542856D01*
X156831009Y-97542856D02*
X156783390Y-97638094D01*
X156783390Y-97638094D02*
X156735771Y-97685713D01*
X156735771Y-97685713D02*
X156640533Y-97733332D01*
X156640533Y-97733332D02*
X156545295Y-97733332D01*
X156545295Y-97733332D02*
X156450057Y-97685713D01*
X156450057Y-97685713D02*
X156402438Y-97638094D01*
X156402438Y-97638094D02*
X156354819Y-97542856D01*
X156354819Y-97542856D02*
X156354819Y-97304761D01*
X156354819Y-97304761D02*
X156402438Y-97161904D01*
X156354819Y-96828570D02*
X157354819Y-96590475D01*
X157354819Y-96590475D02*
X156640533Y-96399999D01*
X156640533Y-96399999D02*
X157354819Y-96209523D01*
X157354819Y-96209523D02*
X156354819Y-95971428D01*
X156450057Y-95638094D02*
X156402438Y-95590475D01*
X156402438Y-95590475D02*
X156354819Y-95495237D01*
X156354819Y-95495237D02*
X156354819Y-95257142D01*
X156354819Y-95257142D02*
X156402438Y-95161904D01*
X156402438Y-95161904D02*
X156450057Y-95114285D01*
X156450057Y-95114285D02*
X156545295Y-95066666D01*
X156545295Y-95066666D02*
X156640533Y-95066666D01*
X156640533Y-95066666D02*
X156783390Y-95114285D01*
X156783390Y-95114285D02*
X157354819Y-95685713D01*
X157354819Y-95685713D02*
X157354819Y-95066666D01*
X179461666Y-98549819D02*
X179461666Y-99264104D01*
X179461666Y-99264104D02*
X179414047Y-99406961D01*
X179414047Y-99406961D02*
X179318809Y-99502200D01*
X179318809Y-99502200D02*
X179175952Y-99549819D01*
X179175952Y-99549819D02*
X179080714Y-99549819D01*
X180414047Y-98549819D02*
X179937857Y-98549819D01*
X179937857Y-98549819D02*
X179890238Y-99026009D01*
X179890238Y-99026009D02*
X179937857Y-98978390D01*
X179937857Y-98978390D02*
X180033095Y-98930771D01*
X180033095Y-98930771D02*
X180271190Y-98930771D01*
X180271190Y-98930771D02*
X180366428Y-98978390D01*
X180366428Y-98978390D02*
X180414047Y-99026009D01*
X180414047Y-99026009D02*
X180461666Y-99121247D01*
X180461666Y-99121247D02*
X180461666Y-99359342D01*
X180461666Y-99359342D02*
X180414047Y-99454580D01*
X180414047Y-99454580D02*
X180366428Y-99502200D01*
X180366428Y-99502200D02*
X180271190Y-99549819D01*
X180271190Y-99549819D02*
X180033095Y-99549819D01*
X180033095Y-99549819D02*
X179937857Y-99502200D01*
X179937857Y-99502200D02*
X179890238Y-99454580D01*
X207164666Y-111146473D02*
X207164666Y-111860758D01*
X207164666Y-111860758D02*
X207117047Y-112003615D01*
X207117047Y-112003615D02*
X207021809Y-112098854D01*
X207021809Y-112098854D02*
X206878952Y-112146473D01*
X206878952Y-112146473D02*
X206783714Y-112146473D01*
X207545619Y-111146473D02*
X208164666Y-111146473D01*
X208164666Y-111146473D02*
X207831333Y-111527425D01*
X207831333Y-111527425D02*
X207974190Y-111527425D01*
X207974190Y-111527425D02*
X208069428Y-111575044D01*
X208069428Y-111575044D02*
X208117047Y-111622663D01*
X208117047Y-111622663D02*
X208164666Y-111717901D01*
X208164666Y-111717901D02*
X208164666Y-111955996D01*
X208164666Y-111955996D02*
X208117047Y-112051234D01*
X208117047Y-112051234D02*
X208069428Y-112098854D01*
X208069428Y-112098854D02*
X207974190Y-112146473D01*
X207974190Y-112146473D02*
X207688476Y-112146473D01*
X207688476Y-112146473D02*
X207593238Y-112098854D01*
X207593238Y-112098854D02*
X207545619Y-112051234D01*
X224367200Y-106643332D02*
X224414819Y-106500475D01*
X224414819Y-106500475D02*
X224414819Y-106262380D01*
X224414819Y-106262380D02*
X224367200Y-106167142D01*
X224367200Y-106167142D02*
X224319580Y-106119523D01*
X224319580Y-106119523D02*
X224224342Y-106071904D01*
X224224342Y-106071904D02*
X224129104Y-106071904D01*
X224129104Y-106071904D02*
X224033866Y-106119523D01*
X224033866Y-106119523D02*
X223986247Y-106167142D01*
X223986247Y-106167142D02*
X223938628Y-106262380D01*
X223938628Y-106262380D02*
X223891009Y-106452856D01*
X223891009Y-106452856D02*
X223843390Y-106548094D01*
X223843390Y-106548094D02*
X223795771Y-106595713D01*
X223795771Y-106595713D02*
X223700533Y-106643332D01*
X223700533Y-106643332D02*
X223605295Y-106643332D01*
X223605295Y-106643332D02*
X223510057Y-106595713D01*
X223510057Y-106595713D02*
X223462438Y-106548094D01*
X223462438Y-106548094D02*
X223414819Y-106452856D01*
X223414819Y-106452856D02*
X223414819Y-106214761D01*
X223414819Y-106214761D02*
X223462438Y-106071904D01*
X223414819Y-105738570D02*
X224414819Y-105500475D01*
X224414819Y-105500475D02*
X223700533Y-105309999D01*
X223700533Y-105309999D02*
X224414819Y-105119523D01*
X224414819Y-105119523D02*
X223414819Y-104881428D01*
X224414819Y-103976666D02*
X224414819Y-104548094D01*
X224414819Y-104262380D02*
X223414819Y-104262380D01*
X223414819Y-104262380D02*
X223557676Y-104357618D01*
X223557676Y-104357618D02*
X223652914Y-104452856D01*
X223652914Y-104452856D02*
X223700533Y-104548094D01*
X175961666Y-96790819D02*
X175961666Y-97505104D01*
X175961666Y-97505104D02*
X175914047Y-97647961D01*
X175914047Y-97647961D02*
X175818809Y-97743200D01*
X175818809Y-97743200D02*
X175675952Y-97790819D01*
X175675952Y-97790819D02*
X175580714Y-97790819D01*
X176580714Y-97219390D02*
X176485476Y-97171771D01*
X176485476Y-97171771D02*
X176437857Y-97124152D01*
X176437857Y-97124152D02*
X176390238Y-97028914D01*
X176390238Y-97028914D02*
X176390238Y-96981295D01*
X176390238Y-96981295D02*
X176437857Y-96886057D01*
X176437857Y-96886057D02*
X176485476Y-96838438D01*
X176485476Y-96838438D02*
X176580714Y-96790819D01*
X176580714Y-96790819D02*
X176771190Y-96790819D01*
X176771190Y-96790819D02*
X176866428Y-96838438D01*
X176866428Y-96838438D02*
X176914047Y-96886057D01*
X176914047Y-96886057D02*
X176961666Y-96981295D01*
X176961666Y-96981295D02*
X176961666Y-97028914D01*
X176961666Y-97028914D02*
X176914047Y-97124152D01*
X176914047Y-97124152D02*
X176866428Y-97171771D01*
X176866428Y-97171771D02*
X176771190Y-97219390D01*
X176771190Y-97219390D02*
X176580714Y-97219390D01*
X176580714Y-97219390D02*
X176485476Y-97267009D01*
X176485476Y-97267009D02*
X176437857Y-97314628D01*
X176437857Y-97314628D02*
X176390238Y-97409866D01*
X176390238Y-97409866D02*
X176390238Y-97600342D01*
X176390238Y-97600342D02*
X176437857Y-97695580D01*
X176437857Y-97695580D02*
X176485476Y-97743200D01*
X176485476Y-97743200D02*
X176580714Y-97790819D01*
X176580714Y-97790819D02*
X176771190Y-97790819D01*
X176771190Y-97790819D02*
X176866428Y-97743200D01*
X176866428Y-97743200D02*
X176914047Y-97695580D01*
X176914047Y-97695580D02*
X176961666Y-97600342D01*
X176961666Y-97600342D02*
X176961666Y-97409866D01*
X176961666Y-97409866D02*
X176914047Y-97314628D01*
X176914047Y-97314628D02*
X176866428Y-97267009D01*
X176866428Y-97267009D02*
X176771190Y-97219390D01*
X193108333Y-113909580D02*
X193060714Y-113957200D01*
X193060714Y-113957200D02*
X192917857Y-114004819D01*
X192917857Y-114004819D02*
X192822619Y-114004819D01*
X192822619Y-114004819D02*
X192679762Y-113957200D01*
X192679762Y-113957200D02*
X192584524Y-113861961D01*
X192584524Y-113861961D02*
X192536905Y-113766723D01*
X192536905Y-113766723D02*
X192489286Y-113576247D01*
X192489286Y-113576247D02*
X192489286Y-113433390D01*
X192489286Y-113433390D02*
X192536905Y-113242914D01*
X192536905Y-113242914D02*
X192584524Y-113147676D01*
X192584524Y-113147676D02*
X192679762Y-113052438D01*
X192679762Y-113052438D02*
X192822619Y-113004819D01*
X192822619Y-113004819D02*
X192917857Y-113004819D01*
X192917857Y-113004819D02*
X193060714Y-113052438D01*
X193060714Y-113052438D02*
X193108333Y-113100057D01*
X194060714Y-114004819D02*
X193489286Y-114004819D01*
X193775000Y-114004819D02*
X193775000Y-113004819D01*
X193775000Y-113004819D02*
X193679762Y-113147676D01*
X193679762Y-113147676D02*
X193584524Y-113242914D01*
X193584524Y-113242914D02*
X193489286Y-113290533D01*
X190757819Y-100338558D02*
X191567342Y-100338558D01*
X191567342Y-100338558D02*
X191662580Y-100290939D01*
X191662580Y-100290939D02*
X191710200Y-100243320D01*
X191710200Y-100243320D02*
X191757819Y-100148082D01*
X191757819Y-100148082D02*
X191757819Y-99957606D01*
X191757819Y-99957606D02*
X191710200Y-99862368D01*
X191710200Y-99862368D02*
X191662580Y-99814749D01*
X191662580Y-99814749D02*
X191567342Y-99767130D01*
X191567342Y-99767130D02*
X190757819Y-99767130D01*
X191757819Y-98767130D02*
X191757819Y-99338558D01*
X191757819Y-99052844D02*
X190757819Y-99052844D01*
X190757819Y-99052844D02*
X190900676Y-99148082D01*
X190900676Y-99148082D02*
X190995914Y-99243320D01*
X190995914Y-99243320D02*
X191043533Y-99338558D01*
X157660476Y-97280819D02*
X157660476Y-97995104D01*
X157660476Y-97995104D02*
X157612857Y-98137961D01*
X157612857Y-98137961D02*
X157517619Y-98233200D01*
X157517619Y-98233200D02*
X157374762Y-98280819D01*
X157374762Y-98280819D02*
X157279524Y-98280819D01*
X158660476Y-98280819D02*
X158089048Y-98280819D01*
X158374762Y-98280819D02*
X158374762Y-97280819D01*
X158374762Y-97280819D02*
X158279524Y-97423676D01*
X158279524Y-97423676D02*
X158184286Y-97518914D01*
X158184286Y-97518914D02*
X158089048Y-97566533D01*
X158993810Y-97280819D02*
X159612857Y-97280819D01*
X159612857Y-97280819D02*
X159279524Y-97661771D01*
X159279524Y-97661771D02*
X159422381Y-97661771D01*
X159422381Y-97661771D02*
X159517619Y-97709390D01*
X159517619Y-97709390D02*
X159565238Y-97757009D01*
X159565238Y-97757009D02*
X159612857Y-97852247D01*
X159612857Y-97852247D02*
X159612857Y-98090342D01*
X159612857Y-98090342D02*
X159565238Y-98185580D01*
X159565238Y-98185580D02*
X159517619Y-98233200D01*
X159517619Y-98233200D02*
X159422381Y-98280819D01*
X159422381Y-98280819D02*
X159136667Y-98280819D01*
X159136667Y-98280819D02*
X159041429Y-98233200D01*
X159041429Y-98233200D02*
X158993810Y-98185580D01*
X181889819Y-102531904D02*
X182699342Y-102531904D01*
X182699342Y-102531904D02*
X182794580Y-102484285D01*
X182794580Y-102484285D02*
X182842200Y-102436666D01*
X182842200Y-102436666D02*
X182889819Y-102341428D01*
X182889819Y-102341428D02*
X182889819Y-102150952D01*
X182889819Y-102150952D02*
X182842200Y-102055714D01*
X182842200Y-102055714D02*
X182794580Y-102008095D01*
X182794580Y-102008095D02*
X182699342Y-101960476D01*
X182699342Y-101960476D02*
X181889819Y-101960476D01*
X182223152Y-101055714D02*
X182889819Y-101055714D01*
X181842200Y-101293809D02*
X182556485Y-101531904D01*
X182556485Y-101531904D02*
X182556485Y-100912857D01*
X161260476Y-97280819D02*
X161260476Y-97995104D01*
X161260476Y-97995104D02*
X161212857Y-98137961D01*
X161212857Y-98137961D02*
X161117619Y-98233200D01*
X161117619Y-98233200D02*
X160974762Y-98280819D01*
X160974762Y-98280819D02*
X160879524Y-98280819D01*
X162260476Y-98280819D02*
X161689048Y-98280819D01*
X161974762Y-98280819D02*
X161974762Y-97280819D01*
X161974762Y-97280819D02*
X161879524Y-97423676D01*
X161879524Y-97423676D02*
X161784286Y-97518914D01*
X161784286Y-97518914D02*
X161689048Y-97566533D01*
X162641429Y-97376057D02*
X162689048Y-97328438D01*
X162689048Y-97328438D02*
X162784286Y-97280819D01*
X162784286Y-97280819D02*
X163022381Y-97280819D01*
X163022381Y-97280819D02*
X163117619Y-97328438D01*
X163117619Y-97328438D02*
X163165238Y-97376057D01*
X163165238Y-97376057D02*
X163212857Y-97471295D01*
X163212857Y-97471295D02*
X163212857Y-97566533D01*
X163212857Y-97566533D02*
X163165238Y-97709390D01*
X163165238Y-97709390D02*
X162593810Y-98280819D01*
X162593810Y-98280819D02*
X163212857Y-98280819D01*
X193108333Y-113909580D02*
X193060714Y-113957200D01*
X193060714Y-113957200D02*
X192917857Y-114004819D01*
X192917857Y-114004819D02*
X192822619Y-114004819D01*
X192822619Y-114004819D02*
X192679762Y-113957200D01*
X192679762Y-113957200D02*
X192584524Y-113861961D01*
X192584524Y-113861961D02*
X192536905Y-113766723D01*
X192536905Y-113766723D02*
X192489286Y-113576247D01*
X192489286Y-113576247D02*
X192489286Y-113433390D01*
X192489286Y-113433390D02*
X192536905Y-113242914D01*
X192536905Y-113242914D02*
X192584524Y-113147676D01*
X192584524Y-113147676D02*
X192679762Y-113052438D01*
X192679762Y-113052438D02*
X192822619Y-113004819D01*
X192822619Y-113004819D02*
X192917857Y-113004819D01*
X192917857Y-113004819D02*
X193060714Y-113052438D01*
X193060714Y-113052438D02*
X193108333Y-113100057D01*
X193441667Y-113004819D02*
X194060714Y-113004819D01*
X194060714Y-113004819D02*
X193727381Y-113385771D01*
X193727381Y-113385771D02*
X193870238Y-113385771D01*
X193870238Y-113385771D02*
X193965476Y-113433390D01*
X193965476Y-113433390D02*
X194013095Y-113481009D01*
X194013095Y-113481009D02*
X194060714Y-113576247D01*
X194060714Y-113576247D02*
X194060714Y-113814342D01*
X194060714Y-113814342D02*
X194013095Y-113909580D01*
X194013095Y-113909580D02*
X193965476Y-113957200D01*
X193965476Y-113957200D02*
X193870238Y-114004819D01*
X193870238Y-114004819D02*
X193584524Y-114004819D01*
X193584524Y-114004819D02*
X193489286Y-113957200D01*
X193489286Y-113957200D02*
X193441667Y-113909580D01*
X184765476Y-108389819D02*
X184765476Y-109104104D01*
X184765476Y-109104104D02*
X184717857Y-109246961D01*
X184717857Y-109246961D02*
X184622619Y-109342200D01*
X184622619Y-109342200D02*
X184479762Y-109389819D01*
X184479762Y-109389819D02*
X184384524Y-109389819D01*
X185765476Y-109389819D02*
X185194048Y-109389819D01*
X185479762Y-109389819D02*
X185479762Y-108389819D01*
X185479762Y-108389819D02*
X185384524Y-108532676D01*
X185384524Y-108532676D02*
X185289286Y-108627914D01*
X185289286Y-108627914D02*
X185194048Y-108675533D01*
X186622619Y-108723152D02*
X186622619Y-109389819D01*
X186384524Y-108342200D02*
X186146429Y-109056485D01*
X186146429Y-109056485D02*
X186765476Y-109056485D01*
X158907200Y-108008332D02*
X158954819Y-107865475D01*
X158954819Y-107865475D02*
X158954819Y-107627380D01*
X158954819Y-107627380D02*
X158907200Y-107532142D01*
X158907200Y-107532142D02*
X158859580Y-107484523D01*
X158859580Y-107484523D02*
X158764342Y-107436904D01*
X158764342Y-107436904D02*
X158669104Y-107436904D01*
X158669104Y-107436904D02*
X158573866Y-107484523D01*
X158573866Y-107484523D02*
X158526247Y-107532142D01*
X158526247Y-107532142D02*
X158478628Y-107627380D01*
X158478628Y-107627380D02*
X158431009Y-107817856D01*
X158431009Y-107817856D02*
X158383390Y-107913094D01*
X158383390Y-107913094D02*
X158335771Y-107960713D01*
X158335771Y-107960713D02*
X158240533Y-108008332D01*
X158240533Y-108008332D02*
X158145295Y-108008332D01*
X158145295Y-108008332D02*
X158050057Y-107960713D01*
X158050057Y-107960713D02*
X158002438Y-107913094D01*
X158002438Y-107913094D02*
X157954819Y-107817856D01*
X157954819Y-107817856D02*
X157954819Y-107579761D01*
X157954819Y-107579761D02*
X158002438Y-107436904D01*
X157954819Y-107103570D02*
X158954819Y-106865475D01*
X158954819Y-106865475D02*
X158240533Y-106674999D01*
X158240533Y-106674999D02*
X158954819Y-106484523D01*
X158954819Y-106484523D02*
X157954819Y-106246428D01*
X157954819Y-105960713D02*
X157954819Y-105341666D01*
X157954819Y-105341666D02*
X158335771Y-105674999D01*
X158335771Y-105674999D02*
X158335771Y-105532142D01*
X158335771Y-105532142D02*
X158383390Y-105436904D01*
X158383390Y-105436904D02*
X158431009Y-105389285D01*
X158431009Y-105389285D02*
X158526247Y-105341666D01*
X158526247Y-105341666D02*
X158764342Y-105341666D01*
X158764342Y-105341666D02*
X158859580Y-105389285D01*
X158859580Y-105389285D02*
X158907200Y-105436904D01*
X158907200Y-105436904D02*
X158954819Y-105532142D01*
X158954819Y-105532142D02*
X158954819Y-105817856D01*
X158954819Y-105817856D02*
X158907200Y-105913094D01*
X158907200Y-105913094D02*
X158859580Y-105960713D01*
X191213095Y-108229819D02*
X191213095Y-109039342D01*
X191213095Y-109039342D02*
X191260714Y-109134580D01*
X191260714Y-109134580D02*
X191308333Y-109182200D01*
X191308333Y-109182200D02*
X191403571Y-109229819D01*
X191403571Y-109229819D02*
X191594047Y-109229819D01*
X191594047Y-109229819D02*
X191689285Y-109182200D01*
X191689285Y-109182200D02*
X191736904Y-109134580D01*
X191736904Y-109134580D02*
X191784523Y-109039342D01*
X191784523Y-109039342D02*
X191784523Y-108229819D01*
X192213095Y-108325057D02*
X192260714Y-108277438D01*
X192260714Y-108277438D02*
X192355952Y-108229819D01*
X192355952Y-108229819D02*
X192594047Y-108229819D01*
X192594047Y-108229819D02*
X192689285Y-108277438D01*
X192689285Y-108277438D02*
X192736904Y-108325057D01*
X192736904Y-108325057D02*
X192784523Y-108420295D01*
X192784523Y-108420295D02*
X192784523Y-108515533D01*
X192784523Y-108515533D02*
X192736904Y-108658390D01*
X192736904Y-108658390D02*
X192165476Y-109229819D01*
X192165476Y-109229819D02*
X192784523Y-109229819D01*
D11*
%TO.C,C2*%
X179080000Y-104830000D02*
X179228000Y-104830000D01*
X179080000Y-108070000D02*
X179080000Y-104830000D01*
X179080000Y-108070000D02*
X179228000Y-108070000D01*
X181172000Y-104830000D02*
X181320000Y-104830000D01*
X181172000Y-108070000D02*
X181320000Y-108070000D01*
X181320000Y-108070000D02*
X181320000Y-104830000D01*
D12*
%TO.C,U3*%
X200363000Y-87976654D02*
X200363000Y-108296654D01*
X201633000Y-87976654D02*
X200363000Y-87976654D01*
X201633000Y-108296654D02*
X200363000Y-108296654D01*
X217023000Y-87976654D02*
X204023000Y-87976654D01*
X217023000Y-108296654D02*
X204023000Y-108296654D01*
X219413000Y-87976654D02*
X220683000Y-87976654D01*
X219413000Y-108296654D02*
X220683000Y-108296654D01*
X220683000Y-108296654D02*
X220683000Y-87976654D01*
D13*
X218243000Y-108864854D02*
G75*
G02*
X218043000Y-108864854I-100000J0D01*
G01*
X218043000Y-108864854D02*
G75*
G02*
X218243000Y-108864854I100000J0D01*
G01*
D11*
%TO.C,J9*%
X171250000Y-95455000D02*
X171250000Y-87725000D01*
X174010000Y-87725000D02*
X171250000Y-87725000D01*
X174010000Y-95455000D02*
X171250000Y-95455000D01*
X174010000Y-95455000D02*
X174010000Y-87725000D01*
X174010000Y-96725000D02*
X174010000Y-98105000D01*
X174010000Y-98105000D02*
X172630000Y-98105000D01*
D12*
%TO.C,J2*%
X221303000Y-89471654D02*
X221303000Y-97471654D01*
X222003000Y-98171654D02*
X225803000Y-98171654D01*
X223903000Y-87321654D02*
X223903000Y-86321654D01*
X223903000Y-98821654D02*
X223903000Y-99821654D01*
X224403000Y-99321654D02*
X223403000Y-99321654D01*
X225003000Y-87971654D02*
X222803000Y-87971654D01*
X226503000Y-97471654D02*
X226503000Y-89471654D01*
X221303000Y-89471654D02*
G75*
G02*
X222803000Y-87971654I2734300J-1234300D01*
G01*
X222003000Y-98171654D02*
G75*
G02*
X221303000Y-97471654I-1J699999D01*
G01*
X225003000Y-87971654D02*
G75*
G02*
X226503000Y-89471654I-1234300J-2734300D01*
G01*
X226503000Y-97471654D02*
G75*
G02*
X225803000Y-98171654I-699999J-1D01*
G01*
D11*
%TO.C,C5*%
X165460000Y-106652000D02*
X165460000Y-105848000D01*
X165500000Y-106883000D02*
X165500000Y-105617000D01*
X165540000Y-107051000D02*
X165540000Y-105449000D01*
X165580000Y-107189000D02*
X165580000Y-105311000D01*
X165620000Y-107308000D02*
X165620000Y-105192000D01*
X165660000Y-107415000D02*
X165660000Y-105085000D01*
X165700000Y-107511000D02*
X165700000Y-104989000D01*
X165740000Y-107600000D02*
X165740000Y-104900000D01*
X165780000Y-107682000D02*
X165780000Y-104818000D01*
X165820000Y-107759000D02*
X165820000Y-104741000D01*
X165860000Y-107831000D02*
X165860000Y-104669000D01*
X165900000Y-107899000D02*
X165900000Y-104601000D01*
X165940000Y-107964000D02*
X165940000Y-104536000D01*
X165980000Y-108025000D02*
X165980000Y-104475000D01*
X166020000Y-108084000D02*
X166020000Y-104416000D01*
X166060000Y-108140000D02*
X166060000Y-104360000D01*
X166100000Y-108193000D02*
X166100000Y-104307000D01*
X166140000Y-108245000D02*
X166140000Y-104255000D01*
X166180000Y-108294000D02*
X166180000Y-104206000D01*
X166220000Y-108341000D02*
X166220000Y-104159000D01*
X166260000Y-108387000D02*
X166260000Y-104113000D01*
X166300000Y-108431000D02*
X166300000Y-104069000D01*
X166340000Y-108473000D02*
X166340000Y-104027000D01*
X166380000Y-108514000D02*
X166380000Y-103986000D01*
X166420000Y-105210000D02*
X166420000Y-103946000D01*
X166420000Y-108554000D02*
X166420000Y-107290000D01*
X166460000Y-105210000D02*
X166460000Y-103908000D01*
X166460000Y-108592000D02*
X166460000Y-107290000D01*
X166500000Y-105210000D02*
X166500000Y-103871000D01*
X166500000Y-108629000D02*
X166500000Y-107290000D01*
X166540000Y-105210000D02*
X166540000Y-103835000D01*
X166540000Y-108665000D02*
X166540000Y-107290000D01*
X166580000Y-105210000D02*
X166580000Y-103800000D01*
X166580000Y-108700000D02*
X166580000Y-107290000D01*
X166620000Y-105210000D02*
X166620000Y-103767000D01*
X166620000Y-108733000D02*
X166620000Y-107290000D01*
X166660000Y-105210000D02*
X166660000Y-103734000D01*
X166660000Y-108766000D02*
X166660000Y-107290000D01*
X166700000Y-105210000D02*
X166700000Y-103703000D01*
X166700000Y-108797000D02*
X166700000Y-107290000D01*
X166740000Y-105210000D02*
X166740000Y-103673000D01*
X166740000Y-108827000D02*
X166740000Y-107290000D01*
X166780000Y-105210000D02*
X166780000Y-103643000D01*
X166780000Y-108857000D02*
X166780000Y-107290000D01*
X166820000Y-105210000D02*
X166820000Y-103614000D01*
X166820000Y-108886000D02*
X166820000Y-107290000D01*
X166860000Y-105210000D02*
X166860000Y-103587000D01*
X166860000Y-108913000D02*
X166860000Y-107290000D01*
X166900000Y-105210000D02*
X166900000Y-103560000D01*
X166900000Y-108940000D02*
X166900000Y-107290000D01*
X166940000Y-105210000D02*
X166940000Y-103534000D01*
X166940000Y-108966000D02*
X166940000Y-107290000D01*
X166980000Y-105210000D02*
X166980000Y-103509000D01*
X166980000Y-108991000D02*
X166980000Y-107290000D01*
X167020000Y-105210000D02*
X167020000Y-103485000D01*
X167020000Y-109015000D02*
X167020000Y-107290000D01*
X167060000Y-105210000D02*
X167060000Y-103461000D01*
X167060000Y-109039000D02*
X167060000Y-107290000D01*
X167100000Y-105210000D02*
X167100000Y-103438000D01*
X167100000Y-109062000D02*
X167100000Y-107290000D01*
X167140000Y-105210000D02*
X167140000Y-103416000D01*
X167140000Y-109084000D02*
X167140000Y-107290000D01*
X167180000Y-105210000D02*
X167180000Y-103395000D01*
X167180000Y-109105000D02*
X167180000Y-107290000D01*
X167220000Y-105210000D02*
X167220000Y-103374000D01*
X167220000Y-109126000D02*
X167220000Y-107290000D01*
X167260000Y-105210000D02*
X167260000Y-103354000D01*
X167260000Y-109146000D02*
X167260000Y-107290000D01*
X167300000Y-105210000D02*
X167300000Y-103335000D01*
X167300000Y-109165000D02*
X167300000Y-107290000D01*
X167340000Y-105210000D02*
X167340000Y-103316000D01*
X167340000Y-109184000D02*
X167340000Y-107290000D01*
X167380000Y-105210000D02*
X167380000Y-103298000D01*
X167380000Y-109202000D02*
X167380000Y-107290000D01*
X167420000Y-105210000D02*
X167420000Y-103281000D01*
X167420000Y-109219000D02*
X167420000Y-107290000D01*
X167460000Y-105210000D02*
X167460000Y-103264000D01*
X167460000Y-109236000D02*
X167460000Y-107290000D01*
X167500000Y-105210000D02*
X167500000Y-103248000D01*
X167500000Y-109252000D02*
X167500000Y-107290000D01*
X167540000Y-105210000D02*
X167540000Y-103233000D01*
X167540000Y-109267000D02*
X167540000Y-107290000D01*
X167580000Y-105210000D02*
X167580000Y-103218000D01*
X167580000Y-109282000D02*
X167580000Y-107290000D01*
X167620000Y-105210000D02*
X167620000Y-103203000D01*
X167620000Y-109297000D02*
X167620000Y-107290000D01*
X167660000Y-105210000D02*
X167660000Y-103190000D01*
X167660000Y-109310000D02*
X167660000Y-107290000D01*
X167700000Y-105210000D02*
X167700000Y-103177000D01*
X167700000Y-109323000D02*
X167700000Y-107290000D01*
X167740000Y-105210000D02*
X167740000Y-103164000D01*
X167740000Y-109336000D02*
X167740000Y-107290000D01*
X167780000Y-105210000D02*
X167780000Y-103152000D01*
X167780000Y-109348000D02*
X167780000Y-107290000D01*
X167820000Y-105210000D02*
X167820000Y-103141000D01*
X167820000Y-109359000D02*
X167820000Y-107290000D01*
X167860000Y-105210000D02*
X167860000Y-103130000D01*
X167860000Y-109370000D02*
X167860000Y-107290000D01*
X167900000Y-105210000D02*
X167900000Y-103119000D01*
X167900000Y-109381000D02*
X167900000Y-107290000D01*
X167940000Y-105210000D02*
X167940000Y-103110000D01*
X167940000Y-109390000D02*
X167940000Y-107290000D01*
X167980000Y-105210000D02*
X167980000Y-103100000D01*
X167980000Y-109400000D02*
X167980000Y-107290000D01*
X168020000Y-105210000D02*
X168020000Y-103091000D01*
X168020000Y-109409000D02*
X168020000Y-107290000D01*
X168060000Y-105210000D02*
X168060000Y-103083000D01*
X168060000Y-109417000D02*
X168060000Y-107290000D01*
X168100000Y-105210000D02*
X168100000Y-103076000D01*
X168100000Y-109424000D02*
X168100000Y-107290000D01*
X168140000Y-105210000D02*
X168140000Y-103068000D01*
X168140000Y-109432000D02*
X168140000Y-107290000D01*
X168180000Y-105210000D02*
X168180000Y-103062000D01*
X168180000Y-109438000D02*
X168180000Y-107290000D01*
X168220000Y-105210000D02*
X168220000Y-103055000D01*
X168220000Y-109445000D02*
X168220000Y-107290000D01*
X168260000Y-105210000D02*
X168260000Y-103050000D01*
X168260000Y-109450000D02*
X168260000Y-107290000D01*
X168300000Y-105210000D02*
X168300000Y-103045000D01*
X168300000Y-109455000D02*
X168300000Y-107290000D01*
X168340000Y-105210000D02*
X168340000Y-103040000D01*
X168340000Y-109460000D02*
X168340000Y-107290000D01*
X168380000Y-105210000D02*
X168380000Y-103036000D01*
X168380000Y-109464000D02*
X168380000Y-107290000D01*
X168420000Y-105210000D02*
X168420000Y-103032000D01*
X168420000Y-109468000D02*
X168420000Y-107290000D01*
X168460000Y-105210000D02*
X168460000Y-103029000D01*
X168460000Y-109471000D02*
X168460000Y-107290000D01*
X168500000Y-109474000D02*
X168500000Y-103026000D01*
X168540000Y-109476000D02*
X168540000Y-103024000D01*
X168580000Y-109478000D02*
X168580000Y-103022000D01*
X168620000Y-109479000D02*
X168620000Y-103021000D01*
X168660000Y-109480000D02*
X168660000Y-103020000D01*
X168700000Y-109480000D02*
X168700000Y-103020000D01*
X171885241Y-108404000D02*
X171885241Y-107774000D01*
X172200241Y-108089000D02*
X171570241Y-108089000D01*
X171970000Y-106250000D02*
G75*
G02*
X165430000Y-106250000I-3270000J0D01*
G01*
X165430000Y-106250000D02*
G75*
G02*
X171970000Y-106250000I3270000J0D01*
G01*
%TO.C,J7*%
X161895000Y-107295000D02*
X161895000Y-102105000D01*
X164655000Y-102105000D02*
X161895000Y-102105000D01*
X164655000Y-107295000D02*
X161895000Y-107295000D01*
X164655000Y-107295000D02*
X164655000Y-102105000D01*
X164655000Y-108565000D02*
X164655000Y-109945000D01*
X164655000Y-109945000D02*
X163275000Y-109945000D01*
%TO.C,D1*%
X224463000Y-101021654D02*
X225483000Y-101021654D01*
X226263000Y-99551654D02*
X226263000Y-102491654D01*
X226383000Y-99551654D02*
X226383000Y-102491654D01*
X226503000Y-99551654D02*
X226503000Y-102491654D01*
X231943000Y-101021654D02*
X230923000Y-101021654D01*
X225483000Y-99551654D02*
X230923000Y-99551654D01*
X230923000Y-102491654D01*
X225483000Y-102491654D01*
X225483000Y-99551654D01*
%TO.C,J10*%
X167640000Y-95455000D02*
X167640000Y-87725000D01*
X170400000Y-87725000D02*
X167640000Y-87725000D01*
X170400000Y-95455000D02*
X167640000Y-95455000D01*
X170400000Y-95455000D02*
X170400000Y-87725000D01*
X170400000Y-96725000D02*
X170400000Y-98105000D01*
X170400000Y-98105000D02*
X169020000Y-98105000D01*
%TO.C,J4*%
X210973000Y-104581654D02*
X210973000Y-110601654D01*
X210973000Y-110601654D02*
X216273000Y-110601654D01*
X211553000Y-110001654D02*
X211553000Y-110601654D01*
X212353000Y-105581654D02*
X212353000Y-104581654D01*
X212603000Y-104581654D02*
X212603000Y-105581654D01*
X212603000Y-106111654D02*
X212353000Y-105581654D01*
X213153000Y-110001654D02*
X211553000Y-110001654D01*
X213153000Y-110601654D02*
X213153000Y-110001654D01*
X214093000Y-110001654D02*
X214093000Y-110601654D01*
X214643000Y-104581654D02*
X214643000Y-105581654D01*
X214643000Y-106111654D02*
X212603000Y-106111654D01*
X214893000Y-104581654D02*
X214893000Y-105581654D01*
X214893000Y-105581654D02*
X212353000Y-105581654D01*
X214893000Y-105581654D02*
X214643000Y-106111654D01*
X215693000Y-110001654D02*
X214093000Y-110001654D01*
X215693000Y-110601654D02*
X215693000Y-110001654D01*
X216273000Y-104581654D02*
X210973000Y-104581654D01*
X216273000Y-110601654D02*
X216273000Y-104581654D01*
X216563000Y-109571654D02*
X216563000Y-105571654D01*
%TO.C,J11*%
X164065000Y-95455000D02*
X164065000Y-87725000D01*
X166825000Y-87725000D02*
X164065000Y-87725000D01*
X166825000Y-95455000D02*
X164065000Y-95455000D01*
X166825000Y-95455000D02*
X166825000Y-87725000D01*
X166825000Y-96725000D02*
X166825000Y-98105000D01*
X166825000Y-98105000D02*
X165445000Y-98105000D01*
D12*
%TO.C,J1*%
X227003000Y-88671654D02*
X227003000Y-96671654D01*
X228503000Y-98171654D02*
X230703000Y-98171654D01*
X229103000Y-86821654D02*
X230103000Y-86821654D01*
X229603000Y-87321654D02*
X229603000Y-86321654D01*
X229603000Y-98821654D02*
X229603000Y-99821654D01*
X231503000Y-87971654D02*
X227703000Y-87971654D01*
X232203000Y-96671654D02*
X232203000Y-88671654D01*
X227003000Y-88671654D02*
G75*
G02*
X227703000Y-87971654I699999J1D01*
G01*
X228503000Y-98171654D02*
G75*
G02*
X227003000Y-96671654I1234300J2734300D01*
G01*
X231503000Y-87971654D02*
G75*
G02*
X232203000Y-88671654I1J-699999D01*
G01*
X232203000Y-96671654D02*
G75*
G02*
X230703000Y-98171654I-2734300J1234300D01*
G01*
D11*
%TO.C,J6*%
X158395000Y-107385000D02*
X158395000Y-102195000D01*
X161155000Y-102195000D02*
X158395000Y-102195000D01*
X161155000Y-107385000D02*
X158395000Y-107385000D01*
X161155000Y-107385000D02*
X161155000Y-102195000D01*
X161155000Y-108655000D02*
X161155000Y-110035000D01*
X161155000Y-110035000D02*
X159775000Y-110035000D01*
%TO.C,SW2*%
X149400000Y-94150000D02*
X149400000Y-98650000D01*
X151900000Y-99900000D02*
X153400000Y-99900000D01*
X153400000Y-92900000D02*
X151900000Y-92900000D01*
X155900000Y-98650000D02*
X155900000Y-94150000D01*
%TO.C,J5*%
X178415000Y-95445000D02*
X178415000Y-87715000D01*
X181175000Y-87715000D02*
X178415000Y-87715000D01*
X181175000Y-95445000D02*
X178415000Y-95445000D01*
X181175000Y-95445000D02*
X181175000Y-87715000D01*
X181175000Y-96715000D02*
X181175000Y-98095000D01*
X181175000Y-98095000D02*
X179795000Y-98095000D01*
%TO.C,J3*%
X204848000Y-104581654D02*
X204848000Y-110601654D01*
X204848000Y-110601654D02*
X210148000Y-110601654D01*
X205428000Y-110001654D02*
X205428000Y-110601654D01*
X206228000Y-105581654D02*
X206228000Y-104581654D01*
X206478000Y-104581654D02*
X206478000Y-105581654D01*
X206478000Y-106111654D02*
X206228000Y-105581654D01*
X207028000Y-110001654D02*
X205428000Y-110001654D01*
X207028000Y-110601654D02*
X207028000Y-110001654D01*
X207968000Y-110001654D02*
X207968000Y-110601654D01*
X208518000Y-104581654D02*
X208518000Y-105581654D01*
X208518000Y-106111654D02*
X206478000Y-106111654D01*
X208768000Y-104581654D02*
X208768000Y-105581654D01*
X208768000Y-105581654D02*
X206228000Y-105581654D01*
X208768000Y-105581654D02*
X208518000Y-106111654D01*
X209568000Y-110001654D02*
X207968000Y-110001654D01*
X209568000Y-110601654D02*
X209568000Y-110001654D01*
X210148000Y-104581654D02*
X204848000Y-104581654D01*
X210148000Y-110601654D02*
X210148000Y-104581654D01*
X210438000Y-109571654D02*
X210438000Y-105571654D01*
%TO.C,SW1*%
X223990000Y-108800000D02*
X223990000Y-109800000D01*
X223990000Y-109800000D02*
X224490000Y-109300000D01*
X224490000Y-109300000D02*
X223990000Y-108800000D01*
X224690000Y-102890000D02*
X225000000Y-102890000D01*
X224690000Y-111710000D02*
X224690000Y-102890000D01*
X225000000Y-111710000D02*
X224690000Y-111710000D01*
X229210000Y-102890000D02*
X228900000Y-102890000D01*
X229210000Y-102890000D02*
X229210000Y-111710000D01*
X229210000Y-111710000D02*
X228900000Y-111710000D01*
%TO.C,J8*%
X174840000Y-95455000D02*
X174840000Y-87725000D01*
X177600000Y-87725000D02*
X174840000Y-87725000D01*
X177600000Y-95455000D02*
X174840000Y-95455000D01*
X177600000Y-95455000D02*
X177600000Y-87725000D01*
X177600000Y-96725000D02*
X177600000Y-98105000D01*
X177600000Y-98105000D02*
X176220000Y-98105000D01*
%TO.C,C1*%
X191655000Y-110328000D02*
X191655000Y-110180000D01*
X191655000Y-112420000D02*
X191655000Y-112272000D01*
X194895000Y-110180000D02*
X191655000Y-110180000D01*
X194895000Y-110328000D02*
X194895000Y-110180000D01*
X194895000Y-112420000D02*
X191655000Y-112420000D01*
X194895000Y-112420000D02*
X194895000Y-112272000D01*
D12*
%TO.C,U1*%
X181858000Y-87771654D02*
X181858000Y-110471654D01*
X181858000Y-87771654D02*
X199858000Y-87771654D01*
X181858000Y-110471654D02*
X186358000Y-110471654D01*
X186358000Y-111771654D02*
X186358000Y-110471654D01*
X186358000Y-111771654D02*
X195358000Y-111771654D01*
X195358000Y-110471654D02*
X199858000Y-110471654D01*
X195358000Y-111771654D02*
X195358000Y-110471654D01*
X199858000Y-87771654D02*
X199858000Y-110471654D01*
D11*
%TO.C,J13*%
X156865000Y-95455000D02*
X156865000Y-87725000D01*
X159625000Y-87725000D02*
X156865000Y-87725000D01*
X159625000Y-95455000D02*
X156865000Y-95455000D01*
X159625000Y-95455000D02*
X159625000Y-87725000D01*
X159625000Y-96725000D02*
X159625000Y-98105000D01*
X159625000Y-98105000D02*
X158245000Y-98105000D01*
D12*
%TO.C,U4*%
X165275000Y-98430000D02*
X181325000Y-98430000D01*
X165275000Y-111760000D02*
X165275000Y-98430000D01*
X181325000Y-98430000D02*
X181325000Y-111760000D01*
X181325000Y-111760000D02*
X165275000Y-111760000D01*
D11*
%TO.C,J12*%
X160465000Y-95455000D02*
X160465000Y-87725000D01*
X163225000Y-87725000D02*
X160465000Y-87725000D01*
X163225000Y-95455000D02*
X160465000Y-95455000D01*
X163225000Y-95455000D02*
X163225000Y-87725000D01*
X163225000Y-96725000D02*
X163225000Y-98105000D01*
X163225000Y-98105000D02*
X161845000Y-98105000D01*
%TO.C,C3*%
X190035000Y-109552000D02*
X190035000Y-108748000D01*
X190075000Y-109783000D02*
X190075000Y-108517000D01*
X190115000Y-109951000D02*
X190115000Y-108349000D01*
X190155000Y-110089000D02*
X190155000Y-108211000D01*
X190195000Y-110208000D02*
X190195000Y-108092000D01*
X190235000Y-110315000D02*
X190235000Y-107985000D01*
X190275000Y-110411000D02*
X190275000Y-107889000D01*
X190315000Y-110500000D02*
X190315000Y-107800000D01*
X190355000Y-110582000D02*
X190355000Y-107718000D01*
X190395000Y-110659000D02*
X190395000Y-107641000D01*
X190435000Y-110731000D02*
X190435000Y-107569000D01*
X190475000Y-110799000D02*
X190475000Y-107501000D01*
X190515000Y-110864000D02*
X190515000Y-107436000D01*
X190555000Y-110925000D02*
X190555000Y-107375000D01*
X190595000Y-110984000D02*
X190595000Y-107316000D01*
X190635000Y-111040000D02*
X190635000Y-107260000D01*
X190675000Y-111093000D02*
X190675000Y-107207000D01*
X190715000Y-111145000D02*
X190715000Y-107155000D01*
X190755000Y-111194000D02*
X190755000Y-107106000D01*
X190795000Y-111241000D02*
X190795000Y-107059000D01*
X190835000Y-111287000D02*
X190835000Y-107013000D01*
X190875000Y-111331000D02*
X190875000Y-106969000D01*
X190915000Y-111373000D02*
X190915000Y-106927000D01*
X190955000Y-111414000D02*
X190955000Y-106886000D01*
X190995000Y-108110000D02*
X190995000Y-106846000D01*
X190995000Y-111454000D02*
X190995000Y-110190000D01*
X191035000Y-108110000D02*
X191035000Y-106808000D01*
X191035000Y-111492000D02*
X191035000Y-110190000D01*
X191075000Y-108110000D02*
X191075000Y-106771000D01*
X191075000Y-111529000D02*
X191075000Y-110190000D01*
X191115000Y-108110000D02*
X191115000Y-106735000D01*
X191115000Y-111565000D02*
X191115000Y-110190000D01*
X191155000Y-108110000D02*
X191155000Y-106700000D01*
X191155000Y-111600000D02*
X191155000Y-110190000D01*
X191195000Y-108110000D02*
X191195000Y-106667000D01*
X191195000Y-111633000D02*
X191195000Y-110190000D01*
X191235000Y-108110000D02*
X191235000Y-106634000D01*
X191235000Y-111666000D02*
X191235000Y-110190000D01*
X191275000Y-108110000D02*
X191275000Y-106603000D01*
X191275000Y-111697000D02*
X191275000Y-110190000D01*
X191315000Y-108110000D02*
X191315000Y-106573000D01*
X191315000Y-111727000D02*
X191315000Y-110190000D01*
X191355000Y-108110000D02*
X191355000Y-106543000D01*
X191355000Y-111757000D02*
X191355000Y-110190000D01*
X191395000Y-108110000D02*
X191395000Y-106514000D01*
X191395000Y-111786000D02*
X191395000Y-110190000D01*
X191435000Y-108110000D02*
X191435000Y-106487000D01*
X191435000Y-111813000D02*
X191435000Y-110190000D01*
X191475000Y-108110000D02*
X191475000Y-106460000D01*
X191475000Y-111840000D02*
X191475000Y-110190000D01*
X191515000Y-108110000D02*
X191515000Y-106434000D01*
X191515000Y-111866000D02*
X191515000Y-110190000D01*
X191555000Y-108110000D02*
X191555000Y-106409000D01*
X191555000Y-111891000D02*
X191555000Y-110190000D01*
X191595000Y-108110000D02*
X191595000Y-106385000D01*
X191595000Y-111915000D02*
X191595000Y-110190000D01*
X191635000Y-108110000D02*
X191635000Y-106361000D01*
X191635000Y-111939000D02*
X191635000Y-110190000D01*
X191675000Y-108110000D02*
X191675000Y-106338000D01*
X191675000Y-111962000D02*
X191675000Y-110190000D01*
X191715000Y-108110000D02*
X191715000Y-106316000D01*
X191715000Y-111984000D02*
X191715000Y-110190000D01*
X191755000Y-108110000D02*
X191755000Y-106295000D01*
X191755000Y-112005000D02*
X191755000Y-110190000D01*
X191795000Y-108110000D02*
X191795000Y-106274000D01*
X191795000Y-112026000D02*
X191795000Y-110190000D01*
X191835000Y-108110000D02*
X191835000Y-106254000D01*
X191835000Y-112046000D02*
X191835000Y-110190000D01*
X191875000Y-108110000D02*
X191875000Y-106235000D01*
X191875000Y-112065000D02*
X191875000Y-110190000D01*
X191915000Y-108110000D02*
X191915000Y-106216000D01*
X191915000Y-112084000D02*
X191915000Y-110190000D01*
X191955000Y-108110000D02*
X191955000Y-106198000D01*
X191955000Y-112102000D02*
X191955000Y-110190000D01*
X191995000Y-108110000D02*
X191995000Y-106181000D01*
X191995000Y-112119000D02*
X191995000Y-110190000D01*
X192035000Y-108110000D02*
X192035000Y-106164000D01*
X192035000Y-112136000D02*
X192035000Y-110190000D01*
X192075000Y-108110000D02*
X192075000Y-106148000D01*
X192075000Y-112152000D02*
X192075000Y-110190000D01*
X192115000Y-108110000D02*
X192115000Y-106133000D01*
X192115000Y-112167000D02*
X192115000Y-110190000D01*
X192155000Y-108110000D02*
X192155000Y-106118000D01*
X192155000Y-112182000D02*
X192155000Y-110190000D01*
X192195000Y-108110000D02*
X192195000Y-106103000D01*
X192195000Y-112197000D02*
X192195000Y-110190000D01*
X192235000Y-108110000D02*
X192235000Y-106090000D01*
X192235000Y-112210000D02*
X192235000Y-110190000D01*
X192275000Y-108110000D02*
X192275000Y-106077000D01*
X192275000Y-112223000D02*
X192275000Y-110190000D01*
X192315000Y-108110000D02*
X192315000Y-106064000D01*
X192315000Y-112236000D02*
X192315000Y-110190000D01*
X192355000Y-108110000D02*
X192355000Y-106052000D01*
X192355000Y-112248000D02*
X192355000Y-110190000D01*
X192395000Y-108110000D02*
X192395000Y-106041000D01*
X192395000Y-112259000D02*
X192395000Y-110190000D01*
X192435000Y-108110000D02*
X192435000Y-106030000D01*
X192435000Y-112270000D02*
X192435000Y-110190000D01*
X192475000Y-108110000D02*
X192475000Y-106019000D01*
X192475000Y-112281000D02*
X192475000Y-110190000D01*
X192515000Y-108110000D02*
X192515000Y-106010000D01*
X192515000Y-112290000D02*
X192515000Y-110190000D01*
X192555000Y-108110000D02*
X192555000Y-106000000D01*
X192555000Y-112300000D02*
X192555000Y-110190000D01*
X192595000Y-108110000D02*
X192595000Y-105991000D01*
X192595000Y-112309000D02*
X192595000Y-110190000D01*
X192635000Y-108110000D02*
X192635000Y-105983000D01*
X192635000Y-112317000D02*
X192635000Y-110190000D01*
X192675000Y-108110000D02*
X192675000Y-105976000D01*
X192675000Y-112324000D02*
X192675000Y-110190000D01*
X192715000Y-108110000D02*
X192715000Y-105968000D01*
X192715000Y-112332000D02*
X192715000Y-110190000D01*
X192755000Y-108110000D02*
X192755000Y-105962000D01*
X192755000Y-112338000D02*
X192755000Y-110190000D01*
X192795000Y-108110000D02*
X192795000Y-105955000D01*
X192795000Y-112345000D02*
X192795000Y-110190000D01*
X192835000Y-108110000D02*
X192835000Y-105950000D01*
X192835000Y-112350000D02*
X192835000Y-110190000D01*
X192875000Y-108110000D02*
X192875000Y-105945000D01*
X192875000Y-112355000D02*
X192875000Y-110190000D01*
X192915000Y-108110000D02*
X192915000Y-105940000D01*
X192915000Y-112360000D02*
X192915000Y-110190000D01*
X192955000Y-108110000D02*
X192955000Y-105936000D01*
X192955000Y-112364000D02*
X192955000Y-110190000D01*
X192995000Y-108110000D02*
X192995000Y-105932000D01*
X192995000Y-112368000D02*
X192995000Y-110190000D01*
X193035000Y-108110000D02*
X193035000Y-105929000D01*
X193035000Y-112371000D02*
X193035000Y-110190000D01*
X193075000Y-112374000D02*
X193075000Y-105926000D01*
X193115000Y-112376000D02*
X193115000Y-105924000D01*
X193155000Y-112378000D02*
X193155000Y-105922000D01*
X193195000Y-112379000D02*
X193195000Y-105921000D01*
X193235000Y-112380000D02*
X193235000Y-105920000D01*
X193275000Y-112380000D02*
X193275000Y-105920000D01*
X196460241Y-111304000D02*
X196460241Y-110674000D01*
X196775241Y-110989000D02*
X196145241Y-110989000D01*
X196545000Y-109150000D02*
G75*
G02*
X190005000Y-109150000I-3270000J0D01*
G01*
X190005000Y-109150000D02*
G75*
G02*
X196545000Y-109150000I3270000J0D01*
G01*
%TO.C,J14*%
X184195000Y-105285000D02*
X184195000Y-100095000D01*
X186955000Y-100095000D02*
X184195000Y-100095000D01*
X186955000Y-105285000D02*
X184195000Y-105285000D01*
X186955000Y-105285000D02*
X186955000Y-100095000D01*
X186955000Y-106555000D02*
X186955000Y-107935000D01*
X186955000Y-107935000D02*
X185575000Y-107935000D01*
%TO.C,SW3*%
X151000000Y-104425000D02*
X151000000Y-108925000D01*
X153500000Y-110175000D02*
X155000000Y-110175000D01*
X155000000Y-103175000D02*
X153500000Y-103175000D01*
X157500000Y-108925000D02*
X157500000Y-104425000D01*
%TO.C,U2*%
X186735000Y-88295000D02*
X186735000Y-87935000D01*
X186735000Y-89015000D02*
X186735000Y-88655000D01*
X186735000Y-89735000D02*
X186735000Y-89375000D01*
X186735000Y-90455000D02*
X186735000Y-90095000D01*
X186735000Y-91175000D02*
X186735000Y-90815000D01*
X186735000Y-91895000D02*
X186735000Y-91535000D01*
X186735000Y-92615000D02*
X186735000Y-92255000D01*
X186735000Y-93335000D02*
X186735000Y-92975000D01*
X186735000Y-94055000D02*
X186735000Y-93695000D01*
X186735000Y-103705000D02*
X186735000Y-94295000D01*
X187135000Y-87615000D02*
X186775000Y-87615000D01*
X187855000Y-87615000D02*
X187495000Y-87615000D01*
X188575000Y-87615000D02*
X188215000Y-87615000D01*
X189025000Y-103705000D02*
X189025000Y-105565000D01*
X189295000Y-87615000D02*
X188935000Y-87615000D01*
X189845000Y-103705000D02*
X189845000Y-105565000D01*
X190015000Y-87615000D02*
X189655000Y-87615000D01*
X190735000Y-87615000D02*
X190375000Y-87615000D01*
X191455000Y-87615000D02*
X191095000Y-87615000D01*
X191565000Y-103705000D02*
X191565000Y-105565000D01*
X192175000Y-87615000D02*
X191815000Y-87615000D01*
X192385000Y-103705000D02*
X192385000Y-105565000D01*
X192895000Y-87615000D02*
X192535000Y-87615000D01*
X193615000Y-87615000D02*
X193255000Y-87615000D01*
X194105000Y-103705000D02*
X194105000Y-105565000D01*
X194335000Y-87615000D02*
X193975000Y-87615000D01*
X194925000Y-103705000D02*
X194925000Y-105565000D01*
X195055000Y-87615000D02*
X194695000Y-87615000D01*
X195775000Y-87615000D02*
X195415000Y-87615000D01*
X196495000Y-87615000D02*
X196135000Y-87615000D01*
X197215000Y-87615000D02*
X196855000Y-87615000D01*
X197215000Y-88295000D02*
X197215000Y-87935000D01*
X197215000Y-89015000D02*
X197215000Y-88655000D01*
X197215000Y-89735000D02*
X197215000Y-89375000D01*
X197215000Y-90455000D02*
X197215000Y-90095000D01*
X197215000Y-91175000D02*
X197215000Y-90815000D01*
X197215000Y-91895000D02*
X197215000Y-91535000D01*
X197215000Y-92615000D02*
X197215000Y-92255000D01*
X197215000Y-93335000D02*
X197215000Y-92975000D01*
X197215000Y-94055000D02*
X197215000Y-93695000D01*
X197215000Y-94295000D02*
X186735000Y-94295000D01*
X197215000Y-103705000D02*
X186735000Y-103705000D01*
X197215000Y-103705000D02*
X197215000Y-94295000D01*
%TD*%
M02*
