%TF.GenerationSoftware,KiCad,Pcbnew,9.0.6*%
%TF.CreationDate,2026-01-26T16:21:30-03:00*%
%TF.ProjectId,V1_ robot_controller,56315f20-726f-4626-9f74-5f636f6e7472,rev?*%
%TF.SameCoordinates,Original*%
%TF.FileFunction,Copper,L2,Bot*%
%TF.FilePolarity,Positive*%
%FSLAX46Y46*%
G04 Gerber Fmt 4.6, Leading zero omitted, Abs format (unit mm)*
G04 Created by KiCad (PCBNEW 9.0.6) date 2026-01-26 16:21:30*
%MOMM*%
%LPD*%
G01*
G04 APERTURE LIST*
G04 Aperture macros list*
%AMRoundRect*
0 Rectangle with rounded corners*
0 $1 Rounding radius*
0 $2 $3 $4 $5 $6 $7 $8 $9 X,Y pos of 4 corners*
0 Add a 4 corners polygon primitive as box body*
4,1,4,$2,$3,$4,$5,$6,$7,$8,$9,$2,$3,0*
0 Add four circle primitives for the rounded corners*
1,1,$1+$1,$2,$3*
1,1,$1+$1,$4,$5*
1,1,$1+$1,$6,$7*
1,1,$1+$1,$8,$9*
0 Add four rect primitives between the rounded corners*
20,1,$1+$1,$2,$3,$4,$5,0*
20,1,$1+$1,$4,$5,$6,$7,0*
20,1,$1+$1,$6,$7,$8,$9,0*
20,1,$1+$1,$8,$9,$2,$3,0*%
G04 Aperture macros list end*
%TA.AperFunction,ComponentPad*%
%ADD10C,1.600000*%
%TD*%
%TA.AperFunction,ComponentPad*%
%ADD11C,1.980000*%
%TD*%
%TA.AperFunction,ComponentPad*%
%ADD12R,2.000000X2.000000*%
%TD*%
%TA.AperFunction,ComponentPad*%
%ADD13C,2.000000*%
%TD*%
%TA.AperFunction,ComponentPad*%
%ADD14C,3.750000*%
%TD*%
%TA.AperFunction,ComponentPad*%
%ADD15R,3.750000X3.750000*%
%TD*%
%TA.AperFunction,ComponentPad*%
%ADD16RoundRect,0.250000X0.550000X0.550000X-0.550000X0.550000X-0.550000X-0.550000X0.550000X-0.550000X0*%
%TD*%
%TA.AperFunction,ComponentPad*%
%ADD17RoundRect,0.249999X-0.850001X-0.850001X0.850001X-0.850001X0.850001X0.850001X-0.850001X0.850001X0*%
%TD*%
%TA.AperFunction,ComponentPad*%
%ADD18C,2.200000*%
%TD*%
%TA.AperFunction,ComponentPad*%
%ADD19O,1.740000X2.190000*%
%TD*%
%TA.AperFunction,ComponentPad*%
%ADD20RoundRect,0.250000X0.620000X0.845000X-0.620000X0.845000X-0.620000X-0.845000X0.620000X-0.845000X0*%
%TD*%
%TA.AperFunction,ComponentPad*%
%ADD21R,2.500000X1.500000*%
%TD*%
%TA.AperFunction,ComponentPad*%
%ADD22O,2.500000X1.500000*%
%TD*%
%TA.AperFunction,ComponentPad*%
%ADD23C,1.800000*%
%TD*%
%TA.AperFunction,ComponentPad*%
%ADD24R,1.524000X1.524000*%
%TD*%
%TA.AperFunction,ComponentPad*%
%ADD25R,1.905000X2.000000*%
%TD*%
%TA.AperFunction,ComponentPad*%
%ADD26O,1.905000X2.000000*%
%TD*%
%TA.AperFunction,ViaPad*%
%ADD27C,5.000000*%
%TD*%
%TA.AperFunction,ViaPad*%
%ADD28C,2.000000*%
%TD*%
%TA.AperFunction,Conductor*%
%ADD29C,2.000000*%
%TD*%
%TA.AperFunction,Conductor*%
%ADD30C,0.800000*%
%TD*%
%TA.AperFunction,Conductor*%
%ADD31C,0.600000*%
%TD*%
%TA.AperFunction,Conductor*%
%ADD32C,1.500000*%
%TD*%
%TA.AperFunction,Conductor*%
%ADD33C,1.000000*%
%TD*%
%TA.AperFunction,Conductor*%
%ADD34C,0.500000*%
%TD*%
G04 APERTURE END LIST*
D10*
%TO.P,C2,1*%
%TO.N,+5V*%
X180200000Y-107700000D03*
%TO.P,C2,2*%
%TO.N,GND*%
X180200000Y-105200000D03*
%TD*%
D11*
%TO.P,U3,1,VM*%
%TO.N,VMOT*%
X218143000Y-107026654D03*
%TO.P,U3,2,VCC*%
%TO.N,+3.3V*%
X218143000Y-104486654D03*
%TO.P,U3,3,GND*%
%TO.N,GND*%
X218143000Y-101946654D03*
%TO.P,U3,4,A01*%
%TO.N,Net-(J4-Pin_1)*%
X218143000Y-99406654D03*
%TO.P,U3,5,A02*%
%TO.N,Net-(J4-Pin_2)*%
X218143000Y-96866654D03*
%TO.P,U3,6,B02*%
%TO.N,Net-(J3-Pin_1)*%
X218143000Y-94326654D03*
%TO.P,U3,7,B01*%
%TO.N,Net-(J3-Pin_2)*%
X218143000Y-91786654D03*
%TO.P,U3,8,GND*%
%TO.N,GND*%
X218143000Y-89246654D03*
%TO.P,U3,9,GND*%
X202903000Y-89246654D03*
%TO.P,U3,10,PWMB*%
%TO.N,PWMB*%
X202903000Y-91786654D03*
%TO.P,U3,11,BI2*%
%TO.N,INB2*%
X202903000Y-94326654D03*
%TO.P,U3,12,BI1*%
%TO.N,INB1*%
X202903000Y-96866654D03*
%TO.P,U3,13,STBY*%
%TO.N,+3.3V*%
X202903000Y-99406654D03*
%TO.P,U3,14,AI1*%
%TO.N,INA1*%
X202903000Y-101946654D03*
%TO.P,U3,15,AI2*%
%TO.N,INA2*%
X202903000Y-104486654D03*
%TO.P,U3,16,PWMA*%
%TO.N,PWMA*%
X202903000Y-107026654D03*
%TD*%
D12*
%TO.P,J9,1,Pin_1*%
%TO.N,+3.3V*%
X172630000Y-96725000D03*
D13*
%TO.P,J9,2,Pin_2*%
%TO.N,GND*%
X172630000Y-94185000D03*
%TO.P,J9,3,Pin_3*%
%TO.N,SCL*%
X172630000Y-91645000D03*
%TO.P,J9,4,Pin_4*%
%TO.N,SDA*%
X172630000Y-89105000D03*
%TD*%
D14*
%TO.P,J2,N,N*%
%TO.N,Net-(J1-PadP)*%
X223903000Y-90571654D03*
D15*
%TO.P,J2,P,P*%
%TO.N,GND*%
X223903000Y-95571654D03*
%TD*%
D16*
%TO.P,C5,1*%
%TO.N,+5V*%
X169950000Y-106250000D03*
D10*
%TO.P,C5,2*%
%TO.N,GND*%
X167450000Y-106250000D03*
%TD*%
D12*
%TO.P,J7,1,Pin_1*%
%TO.N,+5V*%
X163275000Y-108565000D03*
D13*
%TO.P,J7,2,Pin_2*%
%TO.N,GND*%
X163275000Y-106025000D03*
%TO.P,J7,3,Pin_3*%
%TO.N,Net-(J7-Pin_3)*%
X163275000Y-103485000D03*
%TD*%
D17*
%TO.P,D1,1,K*%
%TO.N,Net-(D1-K)*%
X223123000Y-101021654D03*
D18*
%TO.P,D1,2,A*%
%TO.N,Net-(D1-A)*%
X233283000Y-101021654D03*
%TD*%
D12*
%TO.P,J10,1,Pin_1*%
%TO.N,+3.3V*%
X169020000Y-96725000D03*
D13*
%TO.P,J10,2,Pin_2*%
%TO.N,GND*%
X169020000Y-94185000D03*
%TO.P,J10,3,Pin_3*%
%TO.N,SCL*%
X169020000Y-91645000D03*
%TO.P,J10,4,Pin_4*%
%TO.N,SDA*%
X169020000Y-89105000D03*
%TD*%
D19*
%TO.P,J4,1,Pin_1*%
%TO.N,Net-(J4-Pin_1)*%
X214893000Y-107571654D03*
%TO.P,J4,2,Pin_2*%
%TO.N,Net-(J4-Pin_2)*%
X212353000Y-107571654D03*
%TD*%
D12*
%TO.P,J11,1,Pin_1*%
%TO.N,+3.3V*%
X165445000Y-96725000D03*
D13*
%TO.P,J11,2,Pin_2*%
%TO.N,GND*%
X165445000Y-94185000D03*
%TO.P,J11,3,Pin_3*%
%TO.N,SCL*%
X165445000Y-91645000D03*
%TO.P,J11,4,Pin_4*%
%TO.N,SDA*%
X165445000Y-89105000D03*
%TD*%
D14*
%TO.P,J1,N,N*%
%TO.N,Net-(D1-A)*%
X229603000Y-95571654D03*
D15*
%TO.P,J1,P,P*%
%TO.N,Net-(J1-PadP)*%
X229603000Y-90571654D03*
%TD*%
D12*
%TO.P,J6,1,Pin_1*%
%TO.N,+5V*%
X159775000Y-108655000D03*
D13*
%TO.P,J6,2,Pin_2*%
%TO.N,GND*%
X159775000Y-106115000D03*
%TO.P,J6,3,Pin_3*%
%TO.N,Net-(J6-Pin_3)*%
X159775000Y-103575000D03*
%TD*%
%TO.P,SW2,1,1*%
%TO.N,GND*%
X154900000Y-93150000D03*
X154900000Y-99650000D03*
%TO.P,SW2,2,2*%
%TO.N,Net-(U1-GPIO0)*%
X150400000Y-93150000D03*
X150400000Y-99650000D03*
%TD*%
D12*
%TO.P,J5,1,Pin_1*%
%TO.N,+3.3V*%
X179795000Y-96715000D03*
D13*
%TO.P,J5,2,Pin_2*%
%TO.N,GND*%
X179795000Y-94175000D03*
%TO.P,J5,3,Pin_3*%
%TO.N,SDA*%
X179795000Y-91635000D03*
%TO.P,J5,4,Pin_4*%
%TO.N,SCL*%
X179795000Y-89095000D03*
%TD*%
D20*
%TO.P,J3,1,Pin_1*%
%TO.N,Net-(J3-Pin_1)*%
X208768000Y-107571654D03*
D19*
%TO.P,J3,2,Pin_2*%
%TO.N,Net-(J3-Pin_2)*%
X206228000Y-107571654D03*
%TD*%
D21*
%TO.P,SW1,1,A*%
%TO.N,VMOT*%
X226950000Y-109300000D03*
D22*
%TO.P,SW1,2,B*%
%TO.N,Net-(D1-K)*%
X226950000Y-107300000D03*
%TO.P,SW1,3,C*%
%TO.N,unconnected-(SW1-C-Pad3)*%
X226950000Y-105300000D03*
%TD*%
D12*
%TO.P,J8,1,Pin_1*%
%TO.N,+3.3V*%
X176220000Y-96725000D03*
D13*
%TO.P,J8,2,Pin_2*%
%TO.N,GND*%
X176220000Y-94185000D03*
%TO.P,J8,3,Pin_3*%
%TO.N,SCL*%
X176220000Y-91645000D03*
%TO.P,J8,4,Pin_4*%
%TO.N,SDA*%
X176220000Y-89105000D03*
%TD*%
D10*
%TO.P,C1,1*%
%TO.N,VMOT*%
X194525000Y-111300000D03*
%TO.P,C1,2*%
%TO.N,GND*%
X192025000Y-111300000D03*
%TD*%
D23*
%TO.P,U1,0,GPIO0*%
%TO.N,Net-(U1-GPIO0)*%
X183238000Y-91241654D03*
%TO.P,U1,1,GPIO1*%
%TO.N,Net-(U1-GPIO1)*%
X183238000Y-93781654D03*
%TO.P,U1,2,GPIO2*%
%TO.N,Net-(J14-Pin_3)*%
X183238000Y-96321654D03*
%TO.P,U1,3,GPIO3*%
%TO.N,QTR_DER*%
X183238000Y-98861654D03*
%TO.P,U1,3.3,3V3*%
%TO.N,+3.3V*%
X183238000Y-103941654D03*
%TO.P,U1,4,GPIO4*%
%TO.N,QTR_IZQ*%
X183238000Y-101401654D03*
%TO.P,U1,5,GPIO5*%
%TO.N,PWMA*%
X198478000Y-109021654D03*
%TO.P,U1,5V,5V*%
%TO.N,+5V*%
X183238000Y-109021654D03*
%TO.P,U1,6,GPIO6*%
%TO.N,INA2*%
X198478000Y-106481654D03*
%TO.P,U1,7,GPIO7*%
%TO.N,INA1*%
X198478000Y-103941654D03*
%TO.P,U1,8,GPIO8*%
%TO.N,SDA*%
X198478000Y-101401654D03*
%TO.P,U1,9,GPIO9*%
%TO.N,SCL*%
X198478000Y-98861654D03*
%TO.P,U1,10,GPIO10*%
%TO.N,INB1*%
X198478000Y-96321654D03*
%TO.P,U1,20,GPIO20*%
%TO.N,INB2*%
X198478000Y-93781654D03*
%TO.P,U1,21,GPIO21*%
%TO.N,PWMB*%
X198478000Y-91241654D03*
%TO.P,U1,G,GND*%
%TO.N,GND*%
X183238000Y-106481654D03*
%TD*%
D12*
%TO.P,J13,1,Pin_1*%
%TO.N,+3.3V*%
X158245000Y-96725000D03*
D13*
%TO.P,J13,2,Pin_2*%
%TO.N,GND*%
X158245000Y-94185000D03*
%TO.P,J13,3,Pin_3*%
%TO.N,SCL*%
X158245000Y-91645000D03*
%TO.P,J13,4,Pin_4*%
%TO.N,SDA*%
X158245000Y-89105000D03*
%TD*%
%TO.P,U4,GND_1,GND*%
%TO.N,GND*%
X172030000Y-110175000D03*
%TO.P,U4,GND_2,GND*%
X172030000Y-100015000D03*
%TO.P,U4,HV,HV*%
%TO.N,+5V*%
X174570000Y-110175000D03*
D24*
%TO.P,U4,HV1,HV1*%
%TO.N,Net-(J6-Pin_3)*%
X179650000Y-110175000D03*
D13*
%TO.P,U4,HV2,HV2*%
%TO.N,Net-(J7-Pin_3)*%
X177110000Y-110175000D03*
%TO.P,U4,HV3,HV3*%
%TO.N,unconnected-(U4-PadHV3)*%
X169490000Y-110175000D03*
%TO.P,U4,HV4,HV4*%
%TO.N,unconnected-(U4-PadHV4)*%
X166950000Y-110175000D03*
%TO.P,U4,LV,LV*%
%TO.N,+3.3V*%
X174570000Y-100015000D03*
D24*
%TO.P,U4,LV1,LV1*%
%TO.N,QTR_DER*%
X179650000Y-100015000D03*
D13*
%TO.P,U4,LV2,LV2*%
%TO.N,QTR_IZQ*%
X177110000Y-100015000D03*
%TO.P,U4,LV3,LV3*%
%TO.N,unconnected-(U4-PadLV3)*%
X169490000Y-100015000D03*
%TO.P,U4,LV4,LV4*%
%TO.N,unconnected-(U4-PadLV4)*%
X166950000Y-100015000D03*
%TD*%
D12*
%TO.P,J12,1,Pin_1*%
%TO.N,+3.3V*%
X161845000Y-96725000D03*
D13*
%TO.P,J12,2,Pin_2*%
%TO.N,GND*%
X161845000Y-94185000D03*
%TO.P,J12,3,Pin_3*%
%TO.N,SCL*%
X161845000Y-91645000D03*
%TO.P,J12,4,Pin_4*%
%TO.N,SDA*%
X161845000Y-89105000D03*
%TD*%
D16*
%TO.P,C3,1*%
%TO.N,VMOT*%
X194525000Y-109150000D03*
D10*
%TO.P,C3,2*%
%TO.N,GND*%
X192025000Y-109150000D03*
%TD*%
D12*
%TO.P,J14,1,Pin_1*%
%TO.N,GND*%
X185575000Y-106555000D03*
D13*
%TO.P,J14,2,Pin_2*%
%TO.N,+3.3V*%
X185575000Y-104015000D03*
%TO.P,J14,3,Pin_3*%
%TO.N,Net-(J14-Pin_3)*%
X185575000Y-101475000D03*
%TD*%
%TO.P,SW3,1,1*%
%TO.N,GND*%
X156500000Y-103425000D03*
X156500000Y-109925000D03*
%TO.P,SW3,2,2*%
%TO.N,Net-(U1-GPIO1)*%
X152000000Y-103425000D03*
X152000000Y-109925000D03*
%TD*%
D25*
%TO.P,U2,1,IN*%
%TO.N,VMOT*%
X194515000Y-106825000D03*
D26*
%TO.P,U2,2,GND*%
%TO.N,GND*%
X191975000Y-106825000D03*
%TO.P,U2,3,OUT*%
%TO.N,+5V*%
X189435000Y-106825000D03*
%TD*%
D27*
%TO.N,*%
X231625000Y-107450000D03*
X147460036Y-107468574D03*
D28*
%TO.N,Net-(U1-GPIO0)*%
X155024208Y-88254933D03*
%TO.N,Net-(U1-GPIO1)*%
X155052827Y-90704768D03*
%TD*%
D29*
%TO.N,Net-(J1-PadP)*%
X229603000Y-90571654D02*
X223903000Y-90571654D01*
D30*
%TO.N,GND*%
X159003000Y-106025000D02*
X163275000Y-106025000D01*
X155935000Y-94185000D02*
X154900000Y-93150000D01*
D29*
X219578071Y-89281654D02*
X220629000Y-90332583D01*
D30*
X179795000Y-94175000D02*
X158255000Y-94175000D01*
D29*
X219097166Y-101988725D02*
X218185071Y-101988725D01*
D30*
X156544000Y-98426000D02*
X156124000Y-98426000D01*
X170417000Y-111788000D02*
X159506000Y-111788000D01*
D29*
X220629000Y-90332583D02*
X220629000Y-95306654D01*
D30*
X170417000Y-101628000D02*
X165672182Y-101628000D01*
X158074000Y-106954000D02*
X159003000Y-106025000D01*
D31*
X176215000Y-94180000D02*
X176220000Y-94185000D01*
D30*
X158074000Y-99956000D02*
X158074000Y-103350000D01*
X163500000Y-106250000D02*
X163275000Y-106025000D01*
X157999000Y-103425000D02*
X156500000Y-103425000D01*
X156544000Y-98426000D02*
X156544000Y-94406000D01*
D29*
X186312108Y-106481654D02*
X183238000Y-106481654D01*
D30*
X158074000Y-103350000D02*
X158074000Y-106954000D01*
X156544000Y-94406000D02*
X156765000Y-94185000D01*
X156765000Y-94185000D02*
X155935000Y-94185000D01*
X172030000Y-110175000D02*
X170417000Y-111788000D01*
D29*
X218178000Y-89281654D02*
X219578071Y-89281654D01*
X192025000Y-111300000D02*
X192025000Y-105350000D01*
D30*
X158074000Y-110356000D02*
X158074000Y-106954000D01*
X177978472Y-105192654D02*
X181949000Y-105192654D01*
D29*
X202903000Y-89246654D02*
X218143000Y-89246654D01*
D30*
X172030000Y-100015000D02*
X170417000Y-101628000D01*
X167450000Y-106250000D02*
X163500000Y-106250000D01*
X156544000Y-98426000D02*
X158074000Y-99956000D01*
D29*
X188419762Y-104374000D02*
X186312108Y-106481654D01*
D30*
X158074000Y-110356000D02*
X156931000Y-110356000D01*
D29*
X192025000Y-105350000D02*
X191049000Y-104374000D01*
X220629000Y-95306654D02*
X220629000Y-100456891D01*
D30*
X162470182Y-98426000D02*
X156544000Y-98426000D01*
D29*
X223903000Y-95571654D02*
X220894000Y-95571654D01*
D30*
X181949000Y-105192654D02*
X183238000Y-106481654D01*
X172030000Y-100015000D02*
X174515000Y-102500000D01*
X159506000Y-111788000D02*
X158074000Y-110356000D01*
X156765000Y-94185000D02*
X158245000Y-94185000D01*
D29*
X220629000Y-100456891D02*
X219097166Y-101988725D01*
D30*
X156124000Y-98426000D02*
X154900000Y-99650000D01*
X174515000Y-102500000D02*
X175285818Y-102500000D01*
D29*
X220894000Y-95571654D02*
X220629000Y-95306654D01*
D30*
X156931000Y-110356000D02*
X156500000Y-109925000D01*
X165672182Y-101628000D02*
X162470182Y-98426000D01*
X175285818Y-102500000D02*
X177978472Y-105192654D01*
D29*
X191049000Y-104374000D02*
X188419762Y-104374000D01*
D30*
X158074000Y-103350000D02*
X157999000Y-103425000D01*
X158255000Y-94175000D02*
X158245000Y-94185000D01*
%TO.N,+5V*%
X176183000Y-111788000D02*
X182062000Y-111788000D01*
X174570000Y-109145000D02*
X174570000Y-110175000D01*
X169950000Y-106250000D02*
X171675000Y-106250000D01*
X163275000Y-108565000D02*
X159865000Y-108565000D01*
X174570000Y-110175000D02*
X176183000Y-111788000D01*
X181521654Y-109021654D02*
X180200000Y-107700000D01*
X163278000Y-108562000D02*
X173987000Y-108562000D01*
D29*
X189435000Y-106825000D02*
X187238346Y-109021654D01*
D30*
X173987000Y-108562000D02*
X174570000Y-109145000D01*
X159865000Y-108565000D02*
X159775000Y-108655000D01*
X163275000Y-108565000D02*
X163278000Y-108562000D01*
X183238000Y-110612000D02*
X183238000Y-109021654D01*
X183238000Y-109021654D02*
X181521654Y-109021654D01*
X182062000Y-111788000D02*
X183238000Y-110612000D01*
D29*
X187238346Y-109021654D02*
X183238000Y-109021654D01*
D30*
X171675000Y-106250000D02*
X173987000Y-108562000D01*
D29*
%TO.N,Net-(D1-A)*%
X233283000Y-99251654D02*
X229603000Y-95571654D01*
X233283000Y-101021654D02*
X233283000Y-99251654D01*
D32*
%TO.N,Net-(D1-K)*%
X223123000Y-104732131D02*
X223123000Y-101021654D01*
X226950000Y-107300000D02*
X225690869Y-107300000D01*
X225690869Y-107300000D02*
X223123000Y-104732131D01*
D33*
%TO.N,INB1*%
X202358000Y-96321654D02*
X202938000Y-96901654D01*
X198478000Y-96321654D02*
X202358000Y-96321654D01*
D29*
%TO.N,Net-(J3-Pin_1)*%
X218178000Y-94361654D02*
X214925455Y-94361654D01*
X208780000Y-100507109D02*
X208780000Y-107559654D01*
X214925455Y-94361654D02*
X208780000Y-100507109D01*
%TO.N,Net-(J3-Pin_2)*%
X213878000Y-91821654D02*
X206329000Y-99370654D01*
X218178000Y-91821654D02*
X213878000Y-91821654D01*
X206329000Y-99370654D02*
X206329000Y-107571654D01*
%TO.N,Net-(J4-Pin_1)*%
X218178000Y-99441654D02*
X216777929Y-99441654D01*
X216777929Y-99441654D02*
X214776000Y-101443583D01*
X214776000Y-101443583D02*
X214776000Y-107571654D01*
%TO.N,Net-(J4-Pin_2)*%
X215762691Y-96990654D02*
X212325000Y-100428346D01*
X218089000Y-96990654D02*
X215762691Y-96990654D01*
X218178000Y-96901654D02*
X218089000Y-96990654D01*
X212325000Y-100428346D02*
X212325000Y-107571654D01*
D31*
%TO.N,+3.3V*%
X158250000Y-96720000D02*
X160770000Y-96720000D01*
D34*
X216503000Y-106196654D02*
X216503000Y-106331077D01*
D30*
X177455000Y-102900000D02*
X174570000Y-100015000D01*
D33*
X183311346Y-104015000D02*
X183238000Y-103941654D01*
D34*
X204628000Y-101131654D02*
X202938000Y-99441654D01*
X204628000Y-108796654D02*
X204628000Y-101131654D01*
D30*
X181325000Y-102900000D02*
X177455000Y-102900000D01*
X176230000Y-96715000D02*
X176220000Y-96725000D01*
D34*
X216503000Y-106331077D02*
X216477000Y-106357077D01*
X216477000Y-106357077D02*
X216477000Y-108447654D01*
D30*
X183238000Y-103941654D02*
X182366654Y-103941654D01*
X174570000Y-100015000D02*
X174570000Y-98375000D01*
D31*
X158245000Y-96725000D02*
X158250000Y-96720000D01*
D34*
X215514713Y-109409941D02*
X205241287Y-109409941D01*
D31*
X176220000Y-96725000D02*
X158245000Y-96725000D01*
D34*
X216477000Y-108447654D02*
X215514713Y-109409941D01*
X218178000Y-104521654D02*
X216503000Y-106196654D01*
D33*
X185575000Y-104015000D02*
X183311346Y-104015000D01*
D30*
X174570000Y-98375000D02*
X176220000Y-96725000D01*
X179795000Y-96715000D02*
X176230000Y-96715000D01*
X182366654Y-103941654D02*
X181325000Y-102900000D01*
D34*
X205241287Y-109409941D02*
X204628000Y-108796654D01*
D30*
%TO.N,SDA*%
X194147472Y-89716654D02*
X195702000Y-91271182D01*
X195702000Y-99902000D02*
X197201654Y-101401654D01*
X195702000Y-91271182D02*
X195702000Y-99902000D01*
X179795000Y-91635000D02*
X180798324Y-91635000D01*
X197201654Y-101401654D02*
X198478000Y-101401654D01*
X180581324Y-91741654D02*
X182606324Y-89716654D01*
X182606324Y-89716654D02*
X194147472Y-89716654D01*
D31*
X176220000Y-89105000D02*
X158245000Y-89105000D01*
D30*
%TO.N,SCL*%
X179795000Y-89095000D02*
X178770000Y-89095000D01*
X180645000Y-88245000D02*
X194444999Y-88245000D01*
X194444999Y-88245000D02*
X196953000Y-90753000D01*
X197336654Y-98861654D02*
X198478000Y-98861654D01*
X176220000Y-91645000D02*
X158245000Y-91645000D01*
X196953000Y-98478000D02*
X197336654Y-98861654D01*
X178770000Y-89095000D02*
X176220000Y-91645000D01*
X179795000Y-89095000D02*
X180645000Y-88245000D01*
X196953000Y-90753000D02*
X196953000Y-98478000D01*
D33*
%TO.N,PWMB*%
X198478000Y-91241654D02*
X202358000Y-91241654D01*
X202358000Y-91241654D02*
X202938000Y-91821654D01*
%TO.N,INA1*%
X200438000Y-101981654D02*
X202938000Y-101981654D01*
X198478000Y-103941654D02*
X200438000Y-101981654D01*
%TO.N,INA2*%
X200438000Y-104521654D02*
X202938000Y-104521654D01*
X198478000Y-106481654D02*
X200438000Y-104521654D01*
%TO.N,INB2*%
X199058000Y-94361654D02*
X198478000Y-93781654D01*
X202938000Y-94361654D02*
X199058000Y-94361654D01*
D30*
%TO.N,QTR_DER*%
X179650000Y-100015000D02*
X182084654Y-100015000D01*
X182084654Y-100015000D02*
X183238000Y-98861654D01*
%TO.N,QTR_IZQ*%
X178037000Y-101628000D02*
X183011654Y-101628000D01*
X177110000Y-100015000D02*
X177110000Y-100701000D01*
X177110000Y-100701000D02*
X178037000Y-101628000D01*
X183011654Y-101628000D02*
X183238000Y-101401654D01*
D33*
%TO.N,PWMA*%
X200978000Y-109021654D02*
X202938000Y-107061654D01*
X198478000Y-109021654D02*
X200978000Y-109021654D01*
D30*
%TO.N,Net-(J6-Pin_3)*%
X165225000Y-102950000D02*
X163903000Y-101628000D01*
X179650000Y-109725000D02*
X172875000Y-102950000D01*
X172875000Y-102950000D02*
X165225000Y-102950000D01*
X179650000Y-110175000D02*
X179650000Y-109725000D01*
X161722000Y-101628000D02*
X159775000Y-103575000D01*
X163903000Y-101628000D02*
X161722000Y-101628000D01*
%TO.N,Net-(J7-Pin_3)*%
X177110000Y-109485000D02*
X177110000Y-110175000D01*
X171826000Y-104201000D02*
X177110000Y-109485000D01*
X163275000Y-103485000D02*
X163990818Y-103485000D01*
X164706819Y-104201000D02*
X171826000Y-104201000D01*
X163990818Y-103485000D02*
X164706819Y-104201000D01*
D33*
%TO.N,Net-(U1-GPIO0)*%
X154956407Y-88322734D02*
X153813053Y-88322734D01*
X155024208Y-88254933D02*
X154956407Y-88322734D01*
X150400000Y-91735787D02*
X150400000Y-93150000D01*
X153813053Y-88322734D02*
X150400000Y-91735787D01*
X150400000Y-99650000D02*
X150400000Y-93150000D01*
D29*
%TO.N,VMOT*%
X219452232Y-109152232D02*
X219801000Y-109501000D01*
X218178000Y-109152232D02*
X218178000Y-107061654D01*
X194515000Y-111195654D02*
X216004000Y-111195654D01*
X219801000Y-109501000D02*
X226950000Y-109501000D01*
X216219291Y-111110941D02*
X218178000Y-109152232D01*
X216004000Y-111195654D02*
X216088713Y-111110941D01*
X218178000Y-109152232D02*
X219452232Y-109152232D01*
X216088713Y-111110941D02*
X216219291Y-111110941D01*
X194515000Y-106825000D02*
X194515000Y-111195654D01*
D33*
%TO.N,Net-(J14-Pin_3)*%
X185575000Y-97250000D02*
X184646654Y-96321654D01*
X184646654Y-96321654D02*
X183238000Y-96321654D01*
X185575000Y-101475000D02*
X185575000Y-97250000D01*
%TO.N,Net-(U1-GPIO1)*%
X154586101Y-90704768D02*
X152351000Y-92939869D01*
X152351000Y-103074000D02*
X152000000Y-103425000D01*
X152351000Y-92939869D02*
X152351000Y-103074000D01*
X152000000Y-109925000D02*
X152000000Y-103425000D01*
X155052827Y-90704768D02*
X154586101Y-90704768D01*
%TD*%
M02*
