M48
; DRILL file {KiCad 9.0.6} date 2026-01-26T16:23:22-0300
; FORMAT={-:-/ absolute / metric / decimal}
; #@! TF.CreationDate,2026-01-26T16:23:22-03:00
; #@! TF.GenerationSoftware,Kicad,Pcbnew,9.0.6
; #@! TF.FileFunction,Plated,1,2,PTH
FMAT,2
METRIC
; #@! TA.AperFunction,Plated,PTH,ComponentDrill
T1C0.800
; #@! TA.AperFunction,Plated,PTH,ComponentDrill
T2C0.840
; #@! TA.AperFunction,Plated,PTH,ComponentDrill
T3C1.000
; #@! TA.AperFunction,Plated,PTH,ComponentDrill
T4C1.016
; #@! TA.AperFunction,Plated,PTH,ViaDrill
T5C1.100
; #@! TA.AperFunction,Plated,PTH,ComponentDrill
T6C1.100
; #@! TA.AperFunction,Plated,PTH,ComponentDrill
T7C1.190
; #@! TA.AperFunction,Plated,PTH,ComponentDrill
T8C1.200
; #@! TA.AperFunction,Plated,PTH,ComponentDrill
T9C1.900
; #@! TA.AperFunction,Plated,PTH,ComponentDrill
T10C2.000
; #@! TA.AperFunction,Plated,PTH,ViaDrill
T11C3.000
%
G90
G05
T1
X167.45Y-106.25
X169.95Y-106.25
X180.2Y-105.2
X180.2Y-107.7
X192.025Y-109.15
X192.025Y-111.3
X194.525Y-109.15
X194.525Y-111.3
X226.95Y-105.3
X226.95Y-107.3
X226.95Y-109.3
T2
X183.238Y-91.242
X183.238Y-93.782
X183.238Y-96.322
X183.238Y-98.862
X183.238Y-101.402
X183.238Y-103.942
X183.238Y-106.482
X183.238Y-109.022
X198.478Y-91.242
X198.478Y-93.782
X198.478Y-96.322
X198.478Y-98.862
X198.478Y-101.402
X198.478Y-103.942
X198.478Y-106.482
X198.478Y-109.022
T3
X158.245Y-89.105
X158.245Y-91.645
X158.245Y-94.185
X161.845Y-89.105
X161.845Y-91.645
X161.845Y-94.185
X165.445Y-89.105
X165.445Y-91.645
X165.445Y-94.185
X169.02Y-89.105
X169.02Y-91.645
X169.02Y-94.185
X172.63Y-89.105
X172.63Y-91.645
X172.63Y-94.185
X176.22Y-89.105
X176.22Y-91.645
X176.22Y-94.185
X179.795Y-89.095
X179.795Y-91.635
X179.795Y-94.175
T4
X179.65Y-100.015
X179.65Y-110.175
T5
X155.024Y-88.255
X155.053Y-90.705
T6
X150.4Y-93.15
X150.4Y-99.65
X152.0Y-103.425
X152.0Y-109.925
X154.9Y-93.15
X154.9Y-99.65
X156.5Y-103.425
X156.5Y-109.925
X158.245Y-96.725
X159.775Y-103.575
X159.775Y-106.115
X159.775Y-108.655
X161.845Y-96.725
X163.275Y-103.485
X163.275Y-106.025
X163.275Y-108.565
X165.445Y-96.725
X166.95Y-100.015
X166.95Y-110.175
X169.02Y-96.725
X169.49Y-100.015
X169.49Y-110.175
X172.03Y-100.015
X172.03Y-110.175
X172.63Y-96.725
X174.57Y-100.015
X174.57Y-110.175
X176.22Y-96.725
X177.11Y-100.015
X177.11Y-110.175
X179.795Y-96.715
X185.575Y-101.475
X185.575Y-104.015
X185.575Y-106.555
X202.903Y-89.247
X202.903Y-91.787
X202.903Y-94.327
X202.903Y-96.867
X202.903Y-99.407
X202.903Y-101.947
X202.903Y-104.487
X202.903Y-107.027
X218.143Y-89.247
X218.143Y-91.787
X218.143Y-94.327
X218.143Y-96.867
X218.143Y-99.407
X218.143Y-101.947
X218.143Y-104.487
X218.143Y-107.027
X223.123Y-101.022
X233.283Y-101.022
T7
X206.228Y-107.572
X208.768Y-107.572
X212.353Y-107.572
X214.893Y-107.572
T8
X189.435Y-106.825
X191.975Y-106.825
X194.515Y-106.825
T9
X223.903Y-95.572
X229.603Y-90.572
T10
X223.903Y-90.572
X229.603Y-95.572
T11
X147.46Y-107.469
X231.625Y-107.45
M30
