%TF.GenerationSoftware,KiCad,Pcbnew,9.0.6*%
%TF.CreationDate,2026-01-26T16:21:30-03:00*%
%TF.ProjectId,V1_ robot_controller,56315f20-726f-4626-9f74-5f636f6e7472,rev?*%
%TF.SameCoordinates,Original*%
%TF.FileFunction,Profile,NP*%
%FSLAX46Y46*%
G04 Gerber Fmt 4.6, Leading zero omitted, Abs format (unit mm)*
G04 Created by KiCad (PCBNEW 9.0.6) date 2026-01-26 16:21:30*
%MOMM*%
%LPD*%
G01*
G04 APERTURE LIST*
%ADD10C,0.150000*%
%TA.AperFunction,Profile*%
%ADD11C,0.050000*%
%TD*%
G04 APERTURE END LIST*
D10*
X191720833Y-112284710D02*
X191911309Y-112284710D01*
X191911309Y-112284710D02*
X192006547Y-112237091D01*
X192006547Y-112237091D02*
X192054166Y-112189471D01*
X192054166Y-112189471D02*
X192149404Y-112046614D01*
X192149404Y-112046614D02*
X192197023Y-111856138D01*
X192197023Y-111856138D02*
X192197023Y-111475186D01*
X192197023Y-111475186D02*
X192149404Y-111379948D01*
X192149404Y-111379948D02*
X192101785Y-111332329D01*
X192101785Y-111332329D02*
X192006547Y-111284710D01*
X192006547Y-111284710D02*
X191816071Y-111284710D01*
X191816071Y-111284710D02*
X191720833Y-111332329D01*
X191720833Y-111332329D02*
X191673214Y-111379948D01*
X191673214Y-111379948D02*
X191625595Y-111475186D01*
X191625595Y-111475186D02*
X191625595Y-111713281D01*
X191625595Y-111713281D02*
X191673214Y-111808519D01*
X191673214Y-111808519D02*
X191720833Y-111856138D01*
X191720833Y-111856138D02*
X191816071Y-111903757D01*
X191816071Y-111903757D02*
X192006547Y-111903757D01*
X192006547Y-111903757D02*
X192101785Y-111856138D01*
X192101785Y-111856138D02*
X192149404Y-111808519D01*
X192149404Y-111808519D02*
X192197023Y-111713281D01*
X193054166Y-111284710D02*
X192863690Y-111284710D01*
X192863690Y-111284710D02*
X192768452Y-111332329D01*
X192768452Y-111332329D02*
X192720833Y-111379948D01*
X192720833Y-111379948D02*
X192625595Y-111522805D01*
X192625595Y-111522805D02*
X192577976Y-111713281D01*
X192577976Y-111713281D02*
X192577976Y-112094233D01*
X192577976Y-112094233D02*
X192625595Y-112189471D01*
X192625595Y-112189471D02*
X192673214Y-112237091D01*
X192673214Y-112237091D02*
X192768452Y-112284710D01*
X192768452Y-112284710D02*
X192958928Y-112284710D01*
X192958928Y-112284710D02*
X193054166Y-112237091D01*
X193054166Y-112237091D02*
X193101785Y-112189471D01*
X193101785Y-112189471D02*
X193149404Y-112094233D01*
X193149404Y-112094233D02*
X193149404Y-111856138D01*
X193149404Y-111856138D02*
X193101785Y-111760900D01*
X193101785Y-111760900D02*
X193054166Y-111713281D01*
X193054166Y-111713281D02*
X192958928Y-111665662D01*
X192958928Y-111665662D02*
X192768452Y-111665662D01*
X192768452Y-111665662D02*
X192673214Y-111713281D01*
X192673214Y-111713281D02*
X192625595Y-111760900D01*
X192625595Y-111760900D02*
X192577976Y-111856138D01*
D11*
X144387500Y-112479891D02*
X144387500Y-112393471D01*
X240387500Y-112479891D02*
X240387500Y-112393471D01*
X144387500Y-112979891D02*
X240387500Y-112979891D01*
X144387500Y-112979891D02*
X145514004Y-112393470D01*
X144387500Y-112979891D02*
X145514004Y-113566312D01*
X240387500Y-112979891D02*
X239260996Y-113566312D01*
X240387500Y-112979891D02*
X239260996Y-112393470D01*
M02*
